<?xml version="1.0" encoding="utf-8"?>
<!-- Generator: Adobe Illustrator 27.7.0, SVG Export Plug-In . SVG Version: 6.00 Build 0)  -->
<svg version="1.1" id="レイヤー_1" xmlns="http://www.w3.org/2000/svg" xmlns:xlink="http://www.w3.org/1999/xlink" x="0px"
	 y="0px" viewBox="0 0 146.4 8.8" style="enable-background:new 0 0 146.4 8.8;" xml:space="preserve">
<style type="text/css">
	.st0{fill-rule:evenodd;clip-rule:evenodd;fill:#FFFFFF;}
	.st1{fill:#FFFFFF;}
</style>
<path id="copy.svg" class="st0" d="M9.6,4.5c0-2.1-1.7-3.8-3.8-3.8C3.7,0.7,2,2.4,2,4.5c0,2.1,1.7,3.8,3.8,3.8
	C7.9,8.3,9.6,6.6,9.6,4.5C9.6,4.5,9.6,4.5,9.6,4.5z M9.3,4.5C9.3,6.5,7.7,8,5.8,8S2.3,6.4,2.3,4.5C2.3,2.6,3.9,1,5.8,1
	C7.7,1,9.3,2.6,9.3,4.5C9.3,4.5,9.3,4.5,9.3,4.5L9.3,4.5z M7.9,5.3H7c-0.1,0.6-0.6,1-1.1,0.9C5.1,6.1,4.5,5.5,4.6,4.7
	c0,0,0-0.1,0-0.1C4.5,3.8,5,3,5.8,2.9c0,0,0.1,0,0.1,0c0.5,0,1,0.3,1,0.8h0.9c-0.1-1-1-1.7-1.9-1.6c-1.2,0-2.2,1-2.2,2.2
	c0,0.1,0,0.2,0,0.3C3.6,5.8,4.4,6.8,5.6,6.9c0.1,0,0.2,0,0.3,0C6.9,7,7.8,6.3,7.9,5.3L7.9,5.3z M20.2,5.5c-0.4-0.1-0.8-0.4-1.1-0.7
	h0.7V4h-1.4c-0.1-0.1-0.1-0.2-0.2-0.3h1.1V2.9h-0.7c0-0.1,0.3-0.5,0.3-0.5c0.1,0,0.1-0.1,0.2-0.1c0,0,0,0,0-0.1
	c0-0.1-0.1-0.1-0.2-0.1l-0.7-0.2c-0.2,0.4-0.3,0.7-0.6,1.1h-0.5c0-0.2,0.1-0.2,0.1-0.3c0-0.1,0.1-0.1,0.2-0.2c0,0,0,0,0-0.1
	c0-0.1-0.1-0.1-0.2-0.1l-1-0.2c0,0.3,0,0.6-0.2,0.8h-0.6l0.5-0.3C16,2.3,15.8,2,15.5,1.8l-0.7,0.4c0.2,0.2,0.4,0.4,0.5,0.6h-0.6v0.8
	H16c0,0.1-0.1,0.2-0.2,0.3h-1.2v0.8h0.4c-0.2,0.2-0.4,0.3-0.6,0.4V2.1h-2.6c0,0.7,0.1,1.4,0.1,2.1c0,2.6-0.4,3.3-0.7,3.9l0.9,0.3
	c0.3-0.8,0.5-1.6,0.6-2.4h0.7v1.2c0,0.1-0.1,0.3-0.2,0.3c0,0,0,0,0,0c-0.1,0-0.3,0-0.4,0l0.4,1c0.8,0,1.2-0.1,1.2-0.8V5.5l0.5,0.6
	C15,6,15.1,6,15.2,5.9c0.2,0.2,0.4,0.4,0.6,0.6L16.5,6c-0.2-0.2-0.4-0.5-0.6-0.7C16,5.2,16.2,5,16.3,4.9H18c0.2,0.2,0.3,0.4,0.5,0.5
	c-0.2,0.3-0.4,0.5-0.7,0.7l0.6,0.5c0.3-0.2,0.5-0.4,0.7-0.7c0.1,0.1,0.3,0.2,0.5,0.3L20.2,5.5z M13.5,3.7h-0.6c0-0.3,0-0.4,0-0.6
	h0.7V3.7z M13.5,5.2h-0.6c0-0.2,0-0.4,0-0.6h0.6L13.5,5.2L13.5,5.2z M20,1.6V0.7h-2.4V0.5c0,0,0-0.1,0.1-0.1c0.1,0,0.1-0.1,0.1-0.2
	c0-0.1-0.1-0.1-0.2-0.1L16.5,0v0.6h-1.7V0.5c0-0.1,0.1-0.1,0.1-0.2c0,0,0.1-0.1,0.1-0.1c0-0.1-0.1-0.2-0.2-0.1l-1.1,0v0.7h-2.3v0.9
	h2.3v0.3h1.1V1.5h1.7v0.3h1.1V1.5L20,1.6L20,1.6z M16.3,6.5c-0.6,0.3-1.2,0.6-1.8,0.8l0.3,0.8c0,0.1,0.1,0.2,0.2,0.2
	c0.1,0,0.1,0,0.1-0.1c0-0.1,0.1-0.2,0.3-0.3c0.7-0.4,0.8-0.4,1-0.6L16.3,6.5L16.3,6.5z M17.4,4h-0.6c0.1-0.1,0.1-0.2,0.2-0.3h0.3
	C17.3,3.9,17.3,3.9,17.4,4z M19.7,7.8c-0.5-0.5-1-0.8-1.6-1.1l-0.4,0.6V5.5c0-0.1,0.1-0.1,0.1-0.2c0.1,0,0.1-0.1,0.1-0.1
	c0-0.1-0.1-0.1-0.3-0.1l-1-0.1v2.5c0,0.1-0.1,0.2-0.2,0.3c0,0,0,0,0,0c-0.1,0-0.3,0-0.4,0l0.3,1c0.9,0,1.4-0.1,1.4-0.6V7.5
	c0.5,0.3,1,0.6,1.4,1.1L19.7,7.8z M30.9,6.7c-1.4-1-2.6-2.3-3.3-3.9h3.1V1.7h-3.7V0.5c0-0.1,0-0.1,0.1-0.1c0,0,0.1-0.1,0.1-0.1
	c-0.1-0.1-0.2-0.2-0.4-0.2l-1-0.1v1.7h-3.7v1.1h3c-0.7,1.6-1.7,3.1-3.1,4.2l0.9,0.7c1.2-1.1,2.1-2.4,2.8-3.8v2.3h-1.4v1h1.4v1.6h1.2
	V7.1h1.5v-1c0.5,0.5,1,1,1.5,1.4L30.9,6.7z M28.5,6.1h-1.4V4C27.5,4.7,27.9,5.5,28.5,6.1L28.5,6.1z M39.8,2.3L39,1.6
	c-0.1,0.1-0.3,0.2-0.5,0.2h-2.3c0.2-0.3,0.4-0.7,0.5-1c0.1,0,0.2-0.1,0.2-0.2c0-0.1-0.1-0.1-0.2-0.2l-1.1-0.3
	c-0.5,1.6-1.5,2.9-2.8,3.9l0.9,0.7c0.7-0.6,1.3-1.3,1.8-2h2.6c-0.2,0.7-0.5,1.3-0.9,1.8c-0.5-0.4-1.1-0.7-1.7-0.9L35,4.4
	c0.6,0.3,1.1,0.7,1.6,1.1c-0.9,1-2,1.8-3.2,2.2l0.9,0.9c1.2-0.6,2.3-1.4,3.2-2.4c0.4,0.4,0.6,0.6,0.8,0.7L39,6
	c-0.3-0.3-0.5-0.5-0.8-0.8c0.5-0.7,0.9-1.6,1.2-2.4C39.4,2.7,39.6,2.5,39.8,2.3L39.8,2.3z M46.9,2.8c-0.2-0.7-0.5-1.3-0.8-2l-1,0.4
	c0.3,0.6,0.6,1.3,0.8,2L46.9,2.8z M50.2,1.4c0-0.1-0.1-0.1-0.2-0.2l-1.2-0.3c-0.1,1.3-0.6,2.5-1.3,3.6c-0.8,1.2-2,2.1-3.3,2.8l1,0.8
	c2.3-1.2,4-3.4,4.6-5.9c0-0.2,0.1-0.4,0.2-0.6C50,1.6,50.1,1.6,50.2,1.4C50.2,1.5,50.2,1.5,50.2,1.4L50.2,1.4z M44.6,3.3
	c-0.2-0.7-0.5-1.3-0.9-2l-1.1,0.4c0.4,0.6,0.7,1.3,0.9,1.9L44.6,3.3z M60,4.9l-0.1-1.1l-2.9,0.4l-0.2-1.3l2.1-0.3l-0.2-1l-2.2,0.3
	l-0.2-1.3c0-0.1,0.1-0.2,0.2-0.3c0-0.1-0.1-0.1-0.3-0.1l-1,0.1L55.4,2L53,2.3l0.1,1L55.6,3l0.2,1.3l-3.2,0.4l0.2,1.1L56,5.4l0.5,3.2
	l1.2-0.2l-0.5-3.1L60,4.9z M81.4,7.8c-1-0.2-2-0.6-2.8-1.2h2.7V5.8h-3.6V5.3h3.3V4.5h-3.3V4h2.6V3.4h-2.6V2.9h2.6V2.2h-2.6V1.8h3.2
	V1h-3.1c0.1-0.2,0.2-0.4,0.3-0.6c0-0.1,0.1-0.1,0.1-0.1c0.1,0,0.1,0,0.1-0.1c-0.1-0.1-0.1-0.1-0.2-0.1l-1.1-0.1
	c-0.1,0.3-0.3,0.7-0.5,1h-1.4c0.1-0.2,0.2-0.3,0.3-0.5c0,0,0.1-0.1,0.1-0.1c0,0,0.1,0,0.1-0.1c0,0,0-0.1-0.2-0.1L74.6,0
	c-0.2,0.5-0.5,0.9-0.8,1.3c-0.3,0.5-0.7,0.8-1.2,1.2l0.8,0.7c0.2-0.2,0.5-0.4,0.7-0.6v2.8h2.5v0.5h-3.6v0.8h2.5
	c-0.4,0.4-0.8,0.7-1.3,0.9c-0.5,0.2-0.9,0.4-1.4,0.5l0.7,0.8c1.2-0.4,2.2-1,3.1-1.8v1.8h1.2V7c0.5,0.4,1,0.8,1.5,1.1
	c0.5,0.3,1,0.5,1.5,0.6L81.4,7.8z M76.6,3.4h-1.5V2.9h1.5V3.4z M76.6,2.2h-1.5V1.8h1.5V2.2z M76.6,4.5h-1.5V4h1.5V4.5z M91.5,7.7
	c-0.8,0-1.5-0.2-2.2-0.6c-0.6-0.2-1.1-0.7-1.3-1.3h3.3v-1h-1.2V2.8h-2.6V2.6c0-0.1,0.1-0.2,0.1-0.2c0,0,0.1-0.1,0.1-0.1
	c0-0.1-0.2-0.1-0.2-0.1l-1.1,0c0,0.4,0,0.5,0,0.7h-2.6v2.1h-1.1v1h3.3c-0.2,0.5-0.6,1-1.2,1.2c-0.7,0.4-1.5,0.6-2.3,0.6l0.8,1.1
	c0.8-0.2,1.6-0.5,2.3-0.9c0.6-0.4,1.1-0.9,1.4-1.5c0.8,1.3,2.2,2.2,3.7,2.5L91.5,7.7z M88.9,4.9h-1.5c0-0.2,0.1-0.5,0.1-1.2h1.4V4.9
	z M86.4,3.7c0,0.4-0.1,0.8-0.1,1.2h-1.2V3.7H86.4z M91.3,1.8v-1H89V0.5c0-0.1,0-0.1,0.1-0.1c0.1,0,0.1-0.1,0.1-0.2
	c0-0.1-0.1-0.1-0.2-0.1L87.9,0v0.8h-1.8V0.5c0-0.1,0.1-0.1,0.1-0.2c0,0,0.1-0.1,0.1-0.1c0-0.1-0.2-0.1-0.2-0.1L84.9,0v0.8h-2.1v1
	h2.1v0.7h1.2V1.8h1.8v0.7H89V1.8H91.3L91.3,1.8z M101.2,8.5V7.4h-2.1V4h1.8V3h-1.8V0.6c0-0.1,0.1-0.1,0.1-0.2c0,0,0-0.1,0-0.1
	c0-0.1-0.1-0.1-0.1-0.1L98,0.1V3h-1.5V4H98v3.3h-2.4v1.1H101.2L101.2,8.5z M96.7,5.4c-0.5-0.3-0.9-0.7-1.3-1.1
	c0.5-0.6,0.8-1.2,1.1-1.9l-0.4-0.4H95V0.6c0-0.1,0.1-0.2,0.2-0.2c0,0,0.1-0.1,0.1-0.1c0-0.1-0.1-0.1-0.1-0.1L94,0.1v1.8h-1.2V3H95
	c-0.6,1.1-1.5,2.1-2.6,2.8l0.7,0.8c0.3-0.2,0.6-0.4,0.9-0.7v2.8h1V5.2c0.3,0.4,0.7,0.7,1.1,0.9L96.7,5.4z M105.2,4.4
	c0-0.6-0.5-1.1-1.1-1.1c-0.6,0-1.1,0.5-1.1,1.1c0,0,0,0,0,0c0,0.6,0.5,1.1,1.1,1.1C104.7,5.5,105.2,5,105.2,4.4L105.2,4.4z
	 M114.5,8.2V0.9h-2.1l-1.3,5l-0.2,1.2l-0.2-1.2l-1.3-5h-2.1v7.3h1.2V1.8l1.6,6.4h1.5l1.6-6.4v6.4H114.5L114.5,8.2z M122.7,8.2
	l-2.8-7.3h-1.5l-2.8,7.3h1.5l0.5-1.6h3.1l0.5,1.6H122.7z M120.2,5.5H118l1-2.8l0.2-0.6l0.2,0.6L120.2,5.5z M129.5,3.2
	c0-1.3-1-2.3-2.3-2.3c-0.1,0-0.1,0-0.2,0h-3.4v7.3h1.3V5.6h2c1.3,0.1,2.4-0.9,2.5-2.2C129.5,3.3,129.5,3.2,129.5,3.2L129.5,3.2z
	 M128.1,3.2c0.1,0.6-0.4,1.2-1,1.3c-0.1,0-0.2,0-0.2,0H125V2h1.8c0.6-0.1,1.2,0.3,1.3,0.9C128.1,3,128.1,3.1,128.1,3.2L128.1,3.2z
	 M136.4,3.2c0-1.3-1-2.3-2.3-2.3c-0.1,0-0.1,0-0.2,0h-3.4v7.3h1.3V5.6h2c1.3,0.1,2.4-0.9,2.5-2.2C136.4,3.3,136.4,3.2,136.4,3.2
	L136.4,3.2z M134.9,3.2c0.1,0.6-0.4,1.2-1,1.3c-0.1,0-0.2,0-0.2,0h-1.8V2h1.8c0.6-0.1,1.2,0.3,1.3,0.9C134.9,3,134.9,3.1,134.9,3.2
	L134.9,3.2z M143.4,8.2l-2.8-7.3h-1.5l-2.8,7.3h1.5l0.5-1.6h3.1l0.5,1.6H143.4L143.4,8.2z M141,5.5h-2.3l1-2.8l0.2-0.6l0.2,0.6
	L141,5.5z"/>
<g>
	<path class="st1" d="M69.9,0.6l-5.7,7.6h-1.7l5.7-7.6H69.9z"/>
</g>
</svg>
