<svg xmlns="http://www.w3.org/2000/svg" width="295.781" height="14.53" viewBox="0 0 295.781 14.53">
  <defs>
    <style>
      .cls-1 {
        fill: #fff;
        fill-rule: evenodd;
      }
    </style>
  </defs>
  <path id="catch.svg" class="cls-1" d="M465.417,1449.27v-1.29h-3.99a0.563,0.563,0,0,1,.24-0.34,0.232,0.232,0,0,0,.165-0.17,0.155,0.155,0,0,0-.12-0.13l-1.635-.35a7.745,7.745,0,0,1-.99,1.82v-0.83h-3.54a0.508,0.508,0,0,1,.195-0.34,0.294,0.294,0,0,0,.21-0.21,0.182,0.182,0,0,0-.165-0.17l-1.5-.4a9.545,9.545,0,0,1-1.8,3.1l1.32,0.75a7.78,7.78,0,0,0,1.065-1.44h0.615a5,5,0,0,1,.315,1.28l1.575-.2a4.417,4.417,0,0,0-.285-1.08h1.635a3.994,3.994,0,0,1-.825.84l1.26,0.74h-5.475v1.35h4.56v0.76h-2.97l-1.08-.3a22.311,22.311,0,0,1-.585,4.14l1.635,0.15a4.26,4.26,0,0,0,.12-0.51h1.455a8.43,8.43,0,0,1-4.08,2.37l1.08,1.24a11.906,11.906,0,0,0,4.425-2.88v2.72h1.665v-3.45h3.645c-0.09.99-.21,1.41-0.81,1.41H461.7l0.57,1.47h0.84a1.836,1.836,0,0,0,2.055-1.61,10.45,10.45,0,0,0,.225-2.6h-5.475v-0.86h4.605v-3.4h-5.16a11.55,11.55,0,0,0,1.29-1.58h0.75a7.018,7.018,0,0,1,.27,1.14l1.65-.1a3.565,3.565,0,0,0-.285-1.04h2.385Zm-2.61,3.69h-2.9v-0.76h2.9v0.76Zm-4.56,2.15h-2.7c0.03-.24.03-0.29,0.075-0.86h2.625v0.86Zm24.145-4.58v-1.96H472.4v1.96h9.989Zm1.365,7.93v-1.96H471.038v1.96h12.719Zm18.311-2.68a4.75,4.75,0,0,0-1.875-3.48c0.555-1.14.69-1.41,1.86-3.81l-0.57-.82h-4.935v12.23h1.545v-2.79l1.035,1.53A2.758,2.758,0,0,0,502.068,1455.78Zm-1.6-.17a1.419,1.419,0,0,1-1.56,1.32c-0.135,0-.555-0.01-0.81-0.04v-7.83h1.71c-0.39,1.26-.93,2.67-1.2,3.33C499.083,1452.89,500.463,1454.36,500.463,1455.61Zm-4.4-2.06v-1.4H494.7a5.217,5.217,0,0,0,.465-1.09,0.319,0.319,0,0,1,.3-0.23,0.185,0.185,0,0,0,.15-0.16,0.278,0.278,0,0,0-.165-0.2l-1.185-.69h1.605v-1.32h-2.1v-0.81c0-.06.015-0.07,0.225-0.22a0.165,0.165,0,0,0,.105-0.15c0-.12-0.075-0.15-0.24-0.17l-2-.1v1.45h-2.415v1.32h1.41l-1.05.45a10.074,10.074,0,0,1,.855,1.92h-1.65v1.4h7.05Zm-2.055-3.77a9.655,9.655,0,0,1-.915,2.37h-1.815l0.825-.34a11.09,11.09,0,0,0-.87-2.03h2.775Zm1.365,9.99v-5.4h-5.64v5.5h1.5v-0.48h2.52v0.38h1.62Zm-1.62-1.91h-2.52v-1.98h2.52v1.98Zm23.164-9.92v-1.55h-5.31v14.17h1.53v-12.62h3.78Zm16.518,4.17a16.838,16.838,0,0,0-2.94-3.62l-1.365,1.04a15.424,15.424,0,0,1,2.805,3.61Zm-5.19-4.59c0-.11-0.075-0.18-0.329-0.21l-1.815-.18v6a0.417,0.417,0,0,1-.39.49c-0.27,0-1.2-.12-1.41-0.13l0.72,1.84h1.245a1.43,1.43,0,0,0,1.635-1.36v-6.11a0.259,0.259,0,0,1,.149-0.13A0.375,0.375,0,0,0,528.25,1447.52Zm-2.834,2.01a0.316,0.316,0,0,0-.21-0.21l-1.635-.75a13.155,13.155,0,0,1-2.985,4.14l1.515,1.11a20.58,20.58,0,0,0,2.865-3.98,3.675,3.675,0,0,1,.375-0.16A0.2,0.2,0,0,0,525.416,1449.53Zm6.389,4.03a0.265,0.265,0,0,0-.15-0.18l-1.71-.93a8.689,8.689,0,0,1-3.569,4.26c-1.26.75-2.475,1.17-5.43,1.48l0.975,1.59c1.92-.28,5.5-0.81,8.054-3.93a18.9,18.9,0,0,0,1.395-2.08,0.25,0.25,0,0,1,.15-0.04C531.67,1453.73,531.8,1453.73,531.8,1453.56Zm20.135,3.46v-1.59h-4.59v-2.02h2.61v-1.54h-2.61v-1.8h3.87v-1.52h-8.31a4.8,4.8,0,0,1,.33-0.57,1.58,1.58,0,0,1,.315-0.12,0.178,0.178,0,0,0,.075-0.13,0.153,0.153,0,0,0-.105-0.14l-1.845-.69a12.621,12.621,0,0,1-2.91,4.56l1.62,0.86a13.172,13.172,0,0,0,1.68-2.25h3.45v1.8h-4.23v3.56h-2.16v1.59h6.39v2.96h1.89v-2.96h4.53Zm-6.42-1.59h-2.415v-2.02h2.415v2.02Zm22.924-7.78a7.41,7.41,0,0,0-1.59-1.14l-0.63.83a7.326,7.326,0,0,1,1.56,1.14Zm-1.515,1.22a6.859,6.859,0,0,0-1.515-1.13l-0.63.83a6.257,6.257,0,0,1,1.47,1.12Zm-4.364-.24a9.187,9.187,0,0,0-3.03-1.34l-0.795,1.44a9.618,9.618,0,0,1,2.94,1.35Zm5.639,3.6-1.2-1.49a19.388,19.388,0,0,1-8.849,7.33l0.8,1.47a0.778,0.778,0,0,0,.345.41c0.075,0,.105-0.08.15-0.27a0.337,0.337,0,0,1,.255-0.23,24.334,24.334,0,0,0,5.039-3.31A17.18,17.18,0,0,0,568.2,1452.23Zm-7.139-.05a10.2,10.2,0,0,0-3.075-1.56l-0.825,1.52a11.088,11.088,0,0,1,2.985,1.45Zm23.336,0.17-1.215-.89a0.853,0.853,0,0,1-.51.39l-3.509.68-0.405-1.98a0.394,0.394,0,0,1,.09-0.23,0.338,0.338,0,0,0,.12-0.21c0-.16-0.315-0.15-0.39-0.13l-1.425.16,0.5,2.69-3.03.58,0.54,1.35,2.745-.57,1.035,5.79,1.6-.38-1.124-5.72,2.729-.56c-0.285.5-.315,0.54-0.6,1.01-0.42.69-.465,0.78-0.72,1.21l1.365,0.58C583.231,1454.31,583.741,1453.44,584.4,1452.35Zm9.512-2.52a13.806,13.806,0,0,0-3.15-1.86l-0.915,1.41a13.379,13.379,0,0,1,3.075,1.89Zm7.14,1.56-1.035-1.5a20.923,20.923,0,0,1-4.395,4.59,14.237,14.237,0,0,1-5.565,2.59l1.05,1.8a0.465,0.465,0,0,0,.33.28,0.646,0.646,0,0,0,.225-0.46,20.51,20.51,0,0,0,5.655-3.34A21.245,21.245,0,0,0,601.053,1451.39Zm18.523-3.87a1.4,1.4,0,1,0-1.41,1.44A1.416,1.416,0,0,0,619.576,1447.52Zm-1.8,2.32-1.485-1.35a0.855,0.855,0,0,1-.5.24h-8.489v1.74H615.3a12.681,12.681,0,0,1-1.875,3.68,12.017,12.017,0,0,1-4.979,3.92l1.635,1.32a13.313,13.313,0,0,0,4.439-3.66,17.9,17.9,0,0,0,2.64-5.06A2.007,2.007,0,0,1,617.776,1449.84Zm1.215-2.32a0.825,0.825,0,0,1-.825.85,0.848,0.848,0,0,1-.825-0.85,0.835,0.835,0,0,1,.825-0.84A0.826,0.826,0,0,1,618.991,1447.52Zm15.579,5.46h-4.694v-4.71h-1.56v4.71h-4.7v1.54h4.7v4.69h1.56v-4.69h4.694v-1.54Zm9.242,7.66v-14.17h-1.53v12.62H638.5v1.55h5.31Zm20.73-10.39v-1.74a10.644,10.644,0,0,1-3.555.61,13.344,13.344,0,0,1-1.92-.16v1.65c0.795,0.07,1.485.07,1.605,0.07A20.662,20.662,0,0,0,664.542,1450.25Zm0.72,7.87v-1.86a12.3,12.3,0,0,1-3.42.46c-1.515,0-1.665-.4-1.68-1.82l-1.635.22c0.045,2.53.615,3.27,3.345,3.27A20.5,20.5,0,0,0,665.262,1458.12Zm-7.845-2.67-0.885-.48c-0.33.58-.42,0.73-0.6,1.05a8.215,8.215,0,0,1-.21-2.05,14.289,14.289,0,0,1,.87-5.12c0.03-.01.225-0.09,0.255-0.1a0.193,0.193,0,0,0,.075-0.14,0.658,0.658,0,0,0-.39-0.27l-1.53-.55a29.355,29.355,0,0,0-.63,3.42,26.35,26.35,0,0,0-.225,2.95,12.992,12.992,0,0,0,.615,3.94,4.552,4.552,0,0,0,.555,1.19l1.185-.47A13.277,13.277,0,0,1,657.417,1455.45Zm24.816-6.06v-1.8a45.158,45.158,0,0,1-10.935,1.4l0.3,1.77a57.342,57.342,0,0,1,5.715-.65c-0.705.66-2.91,2.73-2.91,5.29,0,3.35,3.75,4.13,4.965,4.38l0.525-1.89a4.379,4.379,0,0,1-2.61-.72,2.567,2.567,0,0,1-1.11-2.09c0-1.5,1.245-3.17,2.565-4.23A5.823,5.823,0,0,1,682.233,1449.39Zm18.757-.24v-1.17h-3.81v-0.37a0.437,0.437,0,0,1,.18-0.18,0.183,0.183,0,0,0,.09-0.15c0-.14-0.15-0.17-0.39-0.18l-1.484-.11v0.99h-3.6v1.17h3.6v0.74h-2.85v4.81h2.85v0.76h-3.39v1.31h3.39v1.17h1.6v-1.17h3.75v-1.31h-3.75v-0.76h2.94v-4.81h-2.94v-0.74h3.81Zm-2.4,2.61h-1.41v-0.75h1.41v0.75Zm0,1.8h-1.41v-0.76h1.41v0.76Zm-3.014-1.8h-1.305v-0.75h1.305v0.75Zm0,1.8h-1.305v-0.76h1.305v0.76Zm-4.1-4.17a7.823,7.823,0,0,0-1.845-1.93l-1.11.91a6.98,6.98,0,0,1,1.8,1.94Zm9.959,8.71c-3.5.26-5.864,0.3-6.794,0.3-1.665,0-3.135-.16-3.135-1.63v-4.33h-3.24v1.53h1.665v3.58a18.978,18.978,0,0,1-2,.96l0.81,1.47a0.266,0.266,0,0,0,.21.16c0.075,0,.075-0.03.135-0.27a0.571,0.571,0,0,1,.27-0.27,14.427,14.427,0,0,0,1.41-1.24c0.6,0.73,1.155,1.42,3.69,1.42h6.224Zm18.4-.18-1.245-.96c-0.06.33-.165,1.08-0.5,1.08a1.808,1.808,0,0,1-.93-1.11,21.062,21.062,0,0,0,1.785-3.55,0.538,0.538,0,0,1,.315-0.36,0.284,0.284,0,0,0,.21-0.22c0-.06-0.03-0.14-0.315-0.27l-1.44-.68a12.614,12.614,0,0,1-1.2,3.21,19.927,19.927,0,0,1-.45-3.79h3.675v-1.35h-3.735c-0.03-.56-0.09-1.76-0.09-2.24a0.665,0.665,0,0,1,.225-0.22c0.135-.11.165-0.12,0.165-0.2s-0.06-.12-0.375-0.16l-1.605-.2c0.046,0.89.12,2.57,0.15,3.02h-3.134v-0.69h2.67v-1.32h-2.67v-0.33a0.321,0.321,0,0,1,.18-0.18,0.209,0.209,0,0,0,.12-0.15c0-.14-0.18-0.18-0.36-0.2l-1.7-.1v0.96h-2.325v1.32H709.6v0.69h-2.775v1.35h2.835v0.6h-2.73v1.24h2.73v0.48h-2.34v3.42h2.34v0.48h-2.835v1.21h2.835v1.31h1.65v-1.31h2.04a6.561,6.561,0,0,1-1,.57l1.469,1.08a13.2,13.2,0,0,0,2.31-2.05c0.99,1.69,1.86,1.86,2.16,1.86C719.032,1460.16,719.512,1459.36,719.842,1457.92Zm-4.41-1.17a9.39,9.39,0,0,1-1.26,1.32v-0.58h-2.864v-0.48h2.34v-3.42h-2.34v-0.48h2.775v-1.24h-2.775v-0.6h3.269A20.214,20.214,0,0,0,715.432,1456.75Zm-2.984-1.79h-1.14v-0.48h1.14v0.48Zm0,1.15h-1.14v-0.5h1.14v0.5Zm-2.79-1.15h-1.125v-0.48h1.125v0.48Zm0,1.15h-1.125v-0.5h1.125v0.5Zm9.689-7.27a7.638,7.638,0,0,0-1.35-1.73l-1.26.98a9.034,9.034,0,0,1,1.29,1.74Zm18.236,7.43v-6.67h-5.175v-1.78a0.347,0.347,0,0,1,.21-0.23,0.279,0.279,0,0,0,.165-0.21,0.2,0.2,0,0,0-.225-0.16l-1.875-.17v2.55h-5.145v6.73h1.725v-0.66h3.42v4.26h1.725v-4.26h3.45v0.6h1.725Zm-1.725-2.21h-3.45v-2.82h3.45v2.82Zm-5.175,0h-3.42v-2.82h3.42v2.82Zm15.591,3.13v2.02h2.01v-2.02h-2.01Zm0-8.92v3.04l0.51,4.95h0.99l0.51-4.95v-3.04h-2.01Z" transform="translate(-452.5 -1446.09)"/>
</svg>
