<?xml version="1.0" encoding="utf-8"?>
<!-- Generator: Adobe Illustrator 26.5.0, SVG Export Plug-In . SVG Version: 6.00 Build 0)  -->
<svg version="1.1" id="レイヤー_1" xmlns="http://www.w3.org/2000/svg" xmlns:xlink="http://www.w3.org/1999/xlink" x="0px"
	 y="0px" viewBox="0 0 573.1 30.8" style="enable-background:new 0 0 573.1 30.8;" xml:space="preserve">
<style type="text/css">
	.st0{fill:#FFFFFF;}
</style>
<g>
	<path class="st0" d="M10.9,6.2L8.6,3.8H5.9L3.7,6.2v18.4L6,27.2h2.5l2.3-2.6v-3.4l3.7,0V26l-4.4,4.9H4.4L0,26V4.7l4.4-4.6h5.7
		l4.4,4.6v4.6h-3.7V6.2z"/>
	<path class="st0" d="M18.1,0.5h5.8v13.3h6.8V0.5h3.7v30.1h-3.7V17.3h-6.8v13.3h-3.7V5.3l1.5-0.9V4.2h-3.6V0.5z"/>
	<path class="st0" d="M41.2,0.4h9.5l4.5,30.2h-3.7l-1.2-7.9H44l-1.2,7.9h-3.7l3.7-25.3l1.5-0.9V4.1h-3.1V0.4z M47.5,4.1h-0.8
		l-2.2,15h5.2L47.5,4.1z"/>
	<path class="st0" d="M57.6,30.6v-3.3h3.3V4.9L62.4,4V3.7h-4.5V0.4h9.4v3.3h-2.8v23.6h3.3v3.3H57.6z"/>
	<path class="st0" d="M69.9,0.5h7.1l3.4,10.8l3.3,12.6H84l-0.8-12.8V0.5h3.6v30.1h-3.9l-4.7-14.9l-2.7-9.9h-0.1l0.5,10.2v14.5h-3.6
		V5.3l1.5-0.9V4.1h-3.7V0.5z"/>
	<path class="st0" d="M95.6,24.7l2.4,2.5h2.7l2.4-2.5v-4.8l-10.9-7.6V4.7l4.3-4.5h5.7l4.3,4.5v4.6h-3.6V6.2l-2.3-2.4H98l-2.2,2.4
		v4.2l10.8,7.6v8.2l-4.4,4.7h-5.8l-4.4-4.7v-5.5h3.6V24.7z"/>
	<path class="st0" d="M112.4,0.4h9.5l4.5,30.2h-3.7l-1.2-7.9h-6.3l-1.2,7.9h-3.7L114,5.3l1.5-0.9V4.1h-3.1V0.4z M118.7,4.1h-0.8
		l-2.2,15h5.2L118.7,4.1z"/>
	<path class="st0" d="M136.1,27.4h0.4l3.7-24.1h4.2l3.7,24.1h0.4l2.1-27h3.8l-2.8,30.4H145l-1.1-6.7l-1.6-13.8h-0.2l-1.6,13.8
		l-1.1,6.7h-6.6L130.6,5l1.4-0.8V3.9h-3.7V0.4h5.6L136.1,27.4z"/>
	<path class="st0" d="M183,4h-0.5l-3.6,23.9h-4.6L170.4,4h-0.5v26.6h-3.6V5.2l1.5-0.9V4h-3.6V0.4h9.5l1.7,11.8l1,10.7h0.1l1-10.5
		l1.7-12h7.3v30.2H183V4z"/>
	<path class="st0" d="M193.3,0.4h9.5l4.5,30.2h-3.7l-1.2-7.9h-6.3l-1.2,7.9h-3.7l3.7-25.3l1.5-0.9V4.1h-3.1V0.4z M199.6,4.1h-0.8
		l-2.2,15h5.2L199.6,4.1z"/>
	<path class="st0" d="M209.6,0.5h7.1l3.4,10.8l3.3,12.6h0.1l-0.8-12.8V0.5h3.6v30.1h-3.9l-4.7-14.9L215,5.9h-0.1l0.5,10.2v14.5h-3.6
		V5.3l1.5-0.9V4.1h-3.7V0.5z"/>
	<path class="st0" d="M254.3,25.9l-4.6,4.8h-5.8l-4.5-4.8V4.6l4.6-4.6h5.8l4.6,4.6V25.9z M250.6,24.5V6.1l-2.4-2.4h-2.7L243,6.1
		v18.4l2.5,2.6h2.7L250.6,24.5z"/>
	<path class="st0" d="M270.7,14.6v3.7H264v12.4h-3.7V5.4l1.5-0.9V4.2h-3.7V0.5h14.5v7.1H269V4.2H264v10.4H270.7z"/>
	<path class="st0" d="M288,14.6v3.7h-6.8v12.4h-3.7V5.4l1.5-0.9V4.2h-3.7V0.5h14.5v7.1h-3.6V4.2h-5.1v10.4H288z"/>
	<path class="st0" d="M292.7,30.6v-3.3h3.3V4.9l1.5-0.9V3.7H293V0.4h9.4v3.3h-2.8v23.6h3.3v3.3H292.7z"/>
	<path class="st0" d="M317.7,6.2l-2.3-2.4h-2.6l-2.3,2.4v18.4l2.3,2.6h2.5l2.3-2.6v-3.4l3.7,0V26l-4.4,4.9h-5.8l-4.4-4.9V4.7
		l4.4-4.6h5.7l4.4,4.6v4.6h-3.7V6.2z"/>
	<path class="st0" d="M325,30.6v-3.3h3.3V4.9l1.5-0.9V3.7h-4.5V0.4h9.4v3.3h-2.8v23.6h3.3v3.3H325z"/>
	<path class="st0" d="M340.3,0.4h9.5l4.5,30.2h-3.7l-1.2-7.9h-6.3l-1.2,7.9h-3.7l3.7-25.3l1.5-0.9V4.1h-3.1V0.4z M346.6,4.1h-0.8
		l-2.2,15h5.2L346.6,4.1z"/>
	<path class="st0" d="M362.4,0.4v26.7h6.4v-3.2h3.7v6.7h-13.8V5.3l1.5-0.9V4.1h-3.7V0.4H362.4z"/>
	<path class="st0" d="M383.3,0.4h13.8V8l-4,4.8l4.3,4.9V26l-4.4,4.6h-5.7L383,26v-5.5h3.7v4l2.3,2.4h2.5l2.3-2.4v-5.4l-2.3-2.6h-3.1
		l-1.2-2.3l6.2-7.5V3.8H387V7h-3.7V0.4z"/>
	<path class="st0" d="M407,30.6h-3.7V5.3l1.5-0.9V4.1h-3.8V0.4h11.1l4.6,4.7v10.5l-3.3,3.5l5.4,11.6h-4l-4.7-10.2H407V30.6z
		 M407,16.8h3.7l2.5-2.7V6.6l-2.5-2.5H407V16.8z"/>
	<path class="st0" d="M420.6,4.2V0.5h11.8L437,5v21.1l-4.5,4.6h-9.6V5.4l1.5-0.9V4.2H420.6z M430.9,27l2.4-2.4V6.5l-2.4-2.3h-4.4V27
		H430.9z"/>
	<path class="st0" d="M454.4,3.7h-3.3L451,6.9h-3V0.4h16.6v6.5h-3l-0.1-3.2h-3.3v27h-3.7V3.7z"/>
	<path class="st0" d="M473.2,30.6h-3.7V5.3l1.5-0.9V4.1h-3.8V0.4h11.1l4.6,4.7v10.5l-3.3,3.5l5.4,11.6h-4l-4.7-10.2h-3.2V30.6z
		 M473.2,16.8h3.7l2.5-2.7V6.6l-2.5-2.5h-3.7V16.8z"/>
	<path class="st0" d="M489.8,0.4h9.5l4.5,30.2H500l-1.2-7.9h-6.3l-1.2,7.9h-3.7l3.7-25.3l1.5-0.9V4.1h-3.1V0.4z M496.1,4.1h-0.8
		l-2.2,15h5.2L496.1,4.1z"/>
	<path class="st0" d="M506.1,30.6v-3.3h3.3V4.9l1.5-0.9V3.7h-4.5V0.4h9.4v3.3h-2.8v23.6h3.3v3.3H506.1z"/>
	<path class="st0" d="M524.3,0.4v26.7h6.4v-3.2h3.7v6.7h-13.8V5.3l1.5-0.9V4.1h-3.7V0.4H524.3z"/>
	<path class="st0" d="M549.6,13.8v3.7h-6.8V27h5.4v-3.1h3.7v6.8h-12.8V5.3l1.5-0.9V4.1H537V0.4h14.5v7.1h-3.7V4.1h-5v9.8H549.6z"/>
	<path class="st0" d="M561.2,30.6h-3.7V5.3l1.5-0.9V4.1h-3.8V0.4h11.1l4.6,4.7v10.5l-3.3,3.5l5.4,11.6h-4l-4.7-10.2h-3.2V30.6z
		 M561.2,16.8h3.7l2.5-2.7V6.6l-2.5-2.5h-3.7V16.8z"/>
</g>
</svg>
