<?xml version="1.0" encoding="utf-8"?>
<!-- Generator: Adobe Illustrator 26.5.0, SVG Export Plug-In . SVG Version: 6.00 Build 0)  -->
<svg version="1.1" id="レイヤー_1" xmlns="http://www.w3.org/2000/svg" xmlns:xlink="http://www.w3.org/1999/xlink" x="0px"
	 y="0px" viewBox="0 0 448.5 30.7" style="enable-background:new 0 0 448.5 30.7;" xml:space="preserve">
<style type="text/css">
	.st0{fill:#FFFFFF;}
</style>
<g>
	<path class="st0" d="M10.9,6.1L8.6,3.7H5.9L3.7,6.1v18.4L6,27h2.5l2.3-2.6v-3.3l3.7,0v4.8l-4.4,4.9H4.4L0,25.8V4.6L4.4,0h5.7
		l4.4,4.6v4.6h-3.7V6.1z"/>
	<path class="st0" d="M18.1,0.4h5.8v13.3h6.8V0.4h3.7v30.1h-3.7V17.2h-6.8v13.3h-3.7V5.2l1.5-0.9V4h-3.6V0.4z"/>
	<path class="st0" d="M41.2,0.3h9.5l4.5,30.2h-3.7l-1.2-7.9H44l-1.2,7.9h-3.7l3.7-25.3l1.5-0.9V4h-3.1V0.3z M47.5,4h-0.8l-2.2,15
		h5.2L47.5,4z"/>
	<path class="st0" d="M57.6,30.5v-3.3h3.3V4.8l1.5-0.9V3.6h-4.5V0.2h9.4v3.3h-2.8v23.6h3.3v3.3H57.6z"/>
	<path class="st0" d="M69.9,0.4h7.1l3.4,10.8l3.3,12.6H84L83.1,11V0.4h3.6v30.1h-3.9l-4.7-14.9l-2.7-9.9h-0.1L75.7,16v14.5h-3.6V5.2
		l1.5-0.9V4h-3.7V0.4z"/>
	<path class="st0" d="M95.6,24.6l2.4,2.5h2.7l2.4-2.5v-4.8l-10.9-7.6V4.6l4.3-4.5h5.7l4.3,4.5v4.6h-3.6V6.1l-2.3-2.4H98l-2.2,2.4
		v4.2l10.8,7.6V26l-4.4,4.7h-5.8L91.9,26v-5.5h3.6V24.6z"/>
	<path class="st0" d="M112.4,0.3h9.5l4.5,30.2h-3.7l-1.2-7.9h-6.3l-1.2,7.9h-3.7L114,5.2l1.5-0.9V4h-3.1V0.3z M118.7,4h-0.8l-2.2,15
		h5.2L118.7,4z"/>
	<path class="st0" d="M136.1,27.3h0.4l3.7-24.1h4.2l3.7,24.1h0.4l2.1-27h3.8l-2.8,30.4H145l-1.1-6.7l-1.6-13.8h-0.2l-1.6,13.8
		l-1.1,6.7h-6.6l-2.3-25.8L132,4V3.8h-3.7V0.3h5.6L136.1,27.3z"/>
	<path class="st0" d="M183,3.9h-0.5l-3.6,23.9h-4.6l-3.8-23.9h-0.5v26.6h-3.6V5l1.5-0.9V3.9h-3.6V0.3h9.5l1.7,11.8l1,10.7h0.1
		l1-10.5l1.7-12h7.3v30.2H183V3.9z"/>
	<path class="st0" d="M193.3,0.3h9.5l4.5,30.2h-3.7l-1.2-7.9h-6.3l-1.2,7.9h-3.7l3.7-25.3l1.5-0.9V4h-3.1V0.3z M199.6,4h-0.8
		l-2.2,15h5.2L199.6,4z"/>
	<path class="st0" d="M209.6,0.4h7.1l3.4,10.8l3.3,12.6h0.1L222.8,11V0.4h3.6v30.1h-3.9l-4.7-14.9L215,5.8h-0.1l0.5,10.2v14.5h-3.6
		V5.2l1.5-0.9V4h-3.7V0.4z"/>
	<path class="st0" d="M256.4,3.9h-0.5l-3.6,23.9h-4.6l-3.8-23.9h-0.5v26.6h-3.6V5l1.5-0.9V3.9h-3.6V0.3h9.5l1.7,11.8l1,10.7h0.1
		l1-10.5l1.7-12h7.3v30.2h-3.6V3.9z"/>
	<path class="st0" d="M266.8,0.3h9.5l4.5,30.2H277l-1.2-7.9h-6.3l-1.2,7.9h-3.7l3.7-25.3l1.5-0.9V4h-3.1V0.3z M273.1,4h-0.8l-2.2,15
		h5.2L273.1,4z"/>
	<path class="st0" d="M283.1,30.5v-3.3h3.3V4.8l1.5-0.9V3.6h-4.5V0.2h9.4v3.3h-2.8v23.6h3.3v3.3H283.1z"/>
	<path class="st0" d="M295.5,0.4h7.1l3.4,10.8l3.3,12.6h0.1L308.7,11V0.4h3.6v30.1h-3.9l-4.7-14.9l-2.7-9.9h-0.1l0.5,10.2v14.5h-3.6
		V5.2l1.5-0.9V4h-3.7V0.4z"/>
	<path class="st0" d="M329.7,3.6h-3.3l-0.2,3.2h-3V0.2h16.6v6.5h-3l-0.1-3.2h-3.3v27h-3.7V3.6z"/>
	<path class="st0" d="M348.5,30.5h-3.7V5.2l1.5-0.9V4h-3.8V0.3h11.1l4.6,4.7v10.5l-3.3,3.5l5.4,11.6h-4l-4.7-10.2h-3.2V30.5z
		 M348.5,16.7h3.7l2.5-2.7V6.5L352.2,4h-3.7V16.7z"/>
	<path class="st0" d="M365.1,0.3h9.5l4.5,30.2h-3.7l-1.2-7.9h-6.3l-1.2,7.9H363l3.7-25.3l1.5-0.9V4h-3.1V0.3z M371.4,4h-0.8l-2.2,15
		h5.2L371.4,4z"/>
	<path class="st0" d="M381.5,30.5v-3.3h3.3V4.8l1.5-0.9V3.6h-4.5V0.2h9.4v3.3h-2.8v23.6h3.3v3.3H381.5z"/>
	<path class="st0" d="M399.6,0.3V27h6.4v-3.2h3.7v6.7h-13.8V5.2l1.5-0.9V4h-3.7V0.3H399.6z"/>
	<path class="st0" d="M424.9,13.7v3.7h-6.8v9.4h5.4v-3.1h3.7v6.8h-12.8V5.2l1.5-0.9V4h-3.7V0.3h14.5v7.1h-3.7V4h-5v9.8H424.9z"/>
	<path class="st0" d="M436.5,30.5h-3.7V5.2l1.5-0.9V4h-3.8V0.3h11.1l4.6,4.7v10.5l-3.3,3.5l5.4,11.6h-4l-4.7-10.2h-3.2V30.5z
		 M436.5,16.7h3.7l2.5-2.7V6.5L440.2,4h-3.7V16.7z"/>
</g>
</svg>
