<svg xmlns="http://www.w3.org/2000/svg" width="22.031" height="17.906" viewBox="0 0 22.031 17.906">
  <defs>
    <style>
      .cls-1 {
        fill: #fff;
        fill-rule: evenodd;
      }
    </style>
  </defs>
  <path id="sns_tw.svg" class="cls-1" d="M255.012,75.123h0M248.226,73a4.526,4.526,0,0,0-4.408,5.553,12.852,12.852,0,0,1-9.327-4.725,4.524,4.524,0,0,0,1.4,6.037,4.5,4.5,0,0,1-2.05-.566v0.057a4.525,4.525,0,0,0,3.63,4.434,4.542,4.542,0,0,1-2.044.077,4.53,4.53,0,0,0,4.228,3.141,9.085,9.085,0,0,1-5.62,1.936,9.347,9.347,0,0,1-1.08-.063,12.871,12.871,0,0,0,19.812-10.835c0-.2,0-0.39-0.014-0.585a9.177,9.177,0,0,0,2.259-2.341,9.045,9.045,0,0,1-2.6.712,4.538,4.538,0,0,0,1.989-2.5,9.061,9.061,0,0,1-2.873,1.1,4.523,4.523,0,0,0-3.3-1.428" transform="translate(-232.969 -73)"/>
</svg>
