<svg xmlns="http://www.w3.org/2000/svg" width="23" height="22.687" viewBox="0 0 23 22.687">
  <defs>
    <style>
      .cls-1 {
        fill: #fff;
        fill-rule: evenodd;
      }
    </style>
  </defs>
  <path id="sns_line.svg" class="cls-1" d="M255,161c0-5.317-5.158-9.643-11.5-9.643s-11.5,4.326-11.5,9.643c0,4.767,4.09,8.76,9.615,9.515a1.411,1.411,0,0,1,1.013.586,2.512,2.512,0,0,1,.037,1.074l-0.164,1.017c-0.05.3-.231,1.175,1,0.641a37.2,37.2,0,0,0,9.033-6.9h0A8.723,8.723,0,0,0,255,161Zm-15.553,2.839a0.228,0.228,0,0,1-.224.232H236a0.217,0.217,0,0,1-.154-0.065l0,0,0,0a0.239,0.239,0,0,1-.062-0.161h0v-5.177a0.228,0.228,0,0,1,.224-0.231h0.806a0.228,0.228,0,0,1,.224.231v4.113h2.191a0.227,0.227,0,0,1,.224.23v0.834Zm1.944,0a0.228,0.228,0,0,1-.224.231h-0.806a0.228,0.228,0,0,1-.224-0.231v-5.178a0.228,0.228,0,0,1,.224-0.231h0.806a0.228,0.228,0,0,1,.224.231v5.178Zm5.551,0a0.228,0.228,0,0,1-.224.231h-0.807a0.212,0.212,0,0,1-.057-0.008h0l-0.015,0-0.007,0-0.011,0-0.011-.006-0.006,0-0.014-.009a0,0,0,0,1,0,0,0.221,0.221,0,0,1-.057-0.057l-2.3-3.209v3.076a0.228,0.228,0,0,1-.224.231H242.4a0.228,0.228,0,0,1-.224-0.231v-5.178a0.228,0.228,0,0,1,.224-0.231h0.838l0.009,0,0.013,0,0.008,0,0.013,0,0.007,0,0.013,0.006,0.007,0,0.012,0.007,0.007,0,0.011,0.008,0.006,0,0.012,0.01,0,0a0.093,0.093,0,0,1,.014.014h0l0.018,0.024,2.3,3.2v-3.076a0.228,0.228,0,0,1,.224-0.231h0.807a0.228,0.228,0,0,1,.224.231v5.178ZM251.4,159.5a0.228,0.228,0,0,1-.224.232H248.98V160.6h2.191a0.227,0.227,0,0,1,.224.231v0.833a0.227,0.227,0,0,1-.224.232H248.98v0.876h2.191a0.227,0.227,0,0,1,.224.231v0.833a0.228,0.228,0,0,1-.224.232h-3.222a0.217,0.217,0,0,1-.154-0.065l0,0,0,0a0.239,0.239,0,0,1-.062-0.161h0v-5.176h0a0.229,0.229,0,0,1,.062-0.159l0,0,0,0a0.219,0.219,0,0,1,.155-0.065h3.222a0.228,0.228,0,0,1,.224.232V159.5Z" transform="translate(-232 -151.344)"/>
</svg>
