<svg 
 xmlns="http://www.w3.org/2000/svg"
 xmlns:xlink="http://www.w3.org/1999/xlink"
 width="101px" height="564px">
<path fill-rule="evenodd"  stroke-width="1px" stroke="rgb(255, 255, 255)" fill-opacity="0" fill="rgb(255, 255, 255)"
 d="M4.488,502.353 L4.488,491.69 L97.483,491.69 C97.483,500.741 97.483,492.681 97.483,502.353 L4.488,502.353 ZM3.992,442.213 L97.483,428.326 L97.483,439.857 L15.275,452.8 L15.275,454.612 L97.483,467.12 L97.483,478.419 L3.992,464.284 L3.992,442.213 ZM86.75,392.613 L56.69,392.613 L56.69,415.56 L44.786,415.56 L44.786,392.613 L15.771,392.613 L15.771,421.131 L4.488,421.131 L4.488,381.329 L97.359,381.329 C97.359,396.333 97.359,404.392 97.359,419.395 L86.75,419.395 L86.75,392.613 ZM97.111,313.378 L97.111,349.708 L83.223,363.595 L18.499,363.595 L4.488,349.708 L4.488,320.73 L82.107,320.73 L84.959,324.785 L85.827,324.785 L85.827,313.378 L97.111,313.378 ZM15.771,331.357 L15.771,344.996 L23.87,352.312 L78.636,352.312 L85.827,344.996 L85.827,331.357 L15.771,331.357 ZM15.275,284.979 L4.488,284.979 L4.488,245.674 L97.359,245.674 L97.359,256.957 L15.275,256.957 L15.275,284.979 ZM86.75,204.381 L56.69,204.381 L56.69,226.824 L44.786,226.824 L44.786,204.381 L15.771,204.381 L15.771,232.899 L4.488,232.899 L4.488,193.97 L97.359,193.97 C97.359,208.101 97.359,216.160 97.359,231.163 L86.75,231.163 L86.75,204.381 ZM54.953,151.432 L54.953,175.239 L18.995,175.239 L4.488,161.600 L4.488,142.505 L18.995,128.866 L83.347,128.866 L97.111,142.629 L97.111,161.476 L83.347,175.239 L66.484,175.239 L66.484,163.955 L78.760,163.955 L86.323,156.516 L86.323,147.588 L78.760,140.149 L23.459,140.149 L15.275,147.712 L15.275,156.392 L23.459,163.955 L43.794,163.955 L43.794,151.432 L54.953,151.432 ZM49.125,77.777 L4.488,77.777 L4.488,66.494 L97.111,66.494 L97.111,81.745 L63.880,92.284 L29.162,101.831 L29.162,102.203 L64.500,100.96 L97.111,100.96 L97.111,111.379 L4.488,111.379 L4.488,99.352 L50.117,84.844 L77.520,76.785 L77.520,76.413 L49.125,77.777 ZM4.488,42.312 L28.666,38.716 L28.666,19.373 L4.488,15.777 L4.488,4.370 L82.355,15.777 L85.207,20.489 L86.75,20.489 L86.75,10.817 L97.359,10.817 L97.359,39.956 L4.488,53.719 L4.488,42.312 ZM39.950,37.104 L86.75,30.160 L86.75,27.804 L39.950,20.985 L39.950,37.104 ZM97.359,531.617 L15.275,531.617 L15.275,559.639 L4.488,559.639 L4.488,520.334 L97.359,520.334 L97.359,531.617 Z"/>
</svg>