<svg 
 xmlns="http://www.w3.org/2000/svg"
 xmlns:xlink="http://www.w3.org/1999/xlink"
 width="84px" height="565px">
<path fill-rule="evenodd"  stroke-width="1px" stroke="rgb(255, 255, 255)" fill-opacity="0" fill="rgb(255, 255, 255)"
 d="M69.92,174.629 L16.189,174.629 L4.188,163.328 L4.188,148.927 L16.189,137.726 L69.92,137.726 L80.393,149.27 L80.393,163.328 L69.92,174.629 ZM71.392,152.727 L65.392,146.727 L19.689,146.727 L13.188,152.827 L13.188,159.428 L19.689,165.528 L65.392,165.528 L71.392,159.528 L71.392,152.727 ZM4.488,99.427 L4.488,90.326 L67.192,90.326 L69.492,94.127 L70.192,94.127 L70.192,84.826 L79.392,84.826 L79.392,112.328 L67.792,123.829 L41.890,123.829 L33.190,115.728 L4.488,129.29 L4.488,119.28 L29.689,107.328 L29.689,99.427 L4.488,99.427 ZM38.790,108.528 L45.490,114.728 L64.92,114.728 L70.192,108.628 L70.192,99.427 L38.790,99.427 L38.790,108.528 ZM71.192,71.627 L12.788,71.627 L12.788,79.728 L4.488,79.728 L4.488,54.426 L12.788,54.426 L12.788,62.527 L68.192,62.527 L70.492,66.327 L71.192,66.327 L71.192,55.226 L79.492,55.226 L79.492,78.628 L71.192,78.628 L71.192,71.627 ZM4.488,35.528 L37.490,35.528 L37.490,18.627 L4.488,18.627 L4.488,9.526 L67.192,9.526 L69.392,13.227 L70.92,13.227 L70.92,4.226 L79.192,4.226 L79.192,18.627 L46.190,18.627 L46.190,35.528 L79.192,35.528 L79.192,44.629 L4.488,44.629 L4.488,35.528 ZM79.392,313.828 L63.992,313.728 L17.189,289.327 L12.888,289.327 L12.888,306.928 L20.889,307.628 L20.889,315.828 L4.488,315.828 L4.488,280.326 L19.489,280.226 L66.292,304.628 L70.992,304.728 L70.992,290.27 L62.291,289.427 L62.291,281.226 L79.392,281.226 L79.392,313.828 ZM79.392,262.528 L4.488,273.629 L4.488,264.428 L23.989,261.528 L23.989,245.927 L4.488,243.27 L4.488,233.826 L67.292,243.27 L69.592,246.827 L70.292,246.827 L70.292,239.27 L79.392,239.27 L79.392,262.528 ZM70.292,252.727 L33.90,247.227 L33.90,260.228 L70.292,254.627 L70.292,252.727 ZM79.192,217.728 L79.192,227.729 L44.490,211.328 L4.488,230.29 L4.488,220.28 L39.990,203.427 L39.990,198.627 L4.488,198.627 L4.488,189.526 L67.92,189.526 L69.392,193.327 L70.92,193.327 L70.92,184.126 L79.192,184.126 L79.192,198.627 L49.91,198.627 L49.91,203.427 L79.192,217.728 ZM68.192,326.727 L70.492,330.527 L71.192,330.527 L71.192,321.326 L79.492,321.326 L79.492,335.827 L19.489,335.827 L13.188,341.527 L13.188,347.528 L19.489,353.228 L79.492,353.228 L79.492,362.329 L16.89,362.329 L4.88,351.628 L4.88,337.527 L16.89,326.727 L68.192,326.727 ZM69.592,408.627 L70.292,408.627 L70.292,400.827 L79.392,400.827 L79.392,424.328 L4.488,435.429 L4.488,426.228 L23.989,423.328 L23.989,407.727 L4.488,404.827 L4.488,395.626 L67.292,404.827 L69.592,408.627 ZM33.90,422.28 L70.292,416.427 L70.292,414.527 L33.90,409.27 L33.90,422.28 ZM69.492,450.227 L70.192,450.227 L70.192,440.926 L79.392,440.926 L79.392,468.428 L67.792,479.929 L41.890,479.929 L33.190,471.828 L4.488,485.129 L4.488,475.128 L29.689,463.428 L29.689,455.527 L4.488,455.527 L4.488,446.426 L67.192,446.426 L69.492,450.227 ZM38.790,464.628 L45.490,470.828 L64.92,470.828 L70.192,464.728 L70.192,455.527 L38.790,455.527 L38.790,464.628 ZM69.592,502.927 L70.292,502.927 L70.292,495.127 L79.392,495.127 L79.392,518.628 L4.488,529.729 L4.488,520.528 L23.989,517.628 L23.989,502.27 L4.488,499.127 L4.488,489.926 L67.292,499.127 L69.592,502.927 ZM33.90,516.328 L70.292,510.727 L70.292,508.827 L33.90,503.327 L33.90,516.328 ZM12.788,543.727 L68.192,543.727 L70.492,547.527 L71.192,547.527 L71.192,536.426 L79.492,536.426 L79.492,559.828 L71.192,559.828 L71.192,552.827 L12.788,552.827 L12.788,560.928 L4.488,560.928 L4.488,535.626 L12.788,535.626 L12.788,543.727 Z"/>
</svg>