<svg 
 xmlns="http://www.w3.org/2000/svg"
 xmlns:xlink="http://www.w3.org/1999/xlink"
 width="103px" height="345px">
<path fill-rule="evenodd"  stroke-width="1px" stroke="rgb(255, 255, 255)" fill-opacity="0" fill="rgb(255, 255, 255)"
 d="M84.587,115.843 L18.995,115.843 L4.116,101.832 L4.116,83.977 L18.995,70.90 L84.587,70.90 L98.599,84.101 L98.599,101.832 L84.587,115.843 ZM87.439,88.688 L80.0,81.249 L23.335,81.249 L15.275,88.812 L15.275,96.996 L23.335,104.560 L80.0,104.560 L87.439,97.120 L87.439,88.688 ZM4.488,60.539 L4.488,48.139 L48.505,27.556 L48.505,21.605 L4.488,21.605 L4.488,10.321 L82.107,10.321 L84.959,15.33 L85.827,15.33 L85.827,3.626 L97.111,3.626 L97.111,21.605 L59.789,21.605 L59.789,27.556 L97.111,45.287 L97.111,57.687 L54.85,37.352 L4.488,60.539 ZM84.835,139.157 L85.703,139.157 L85.703,127.874 L97.235,127.874 L97.235,161.724 L83.223,175.611 L60.533,175.611 L52.349,168.791 L43.174,178.91 L18.375,178.91 L4.488,164.204 L4.488,134.445 L81.983,134.445 L84.835,139.157 ZM45.778,145.853 L15.895,145.853 L15.895,159.492 L23.87,166.684 L37.966,166.684 L45.778,158.748 L45.778,145.853 ZM57.185,157.632 L64.996,164.204 L78.512,164.204 L85.703,157.12 L85.703,145.853 L57.185,145.853 L57.185,157.632 ZM85.207,200.909 L86.75,200.909 L86.75,189.626 L97.359,189.626 L97.359,234.263 L75.412,234.263 L75.412,222.980 L86.75,222.980 L86.75,207.481 L56.69,207.481 L56.69,228.436 L44.786,228.436 L44.786,207.481 L15.771,207.481 L15.771,224.96 L25.319,224.96 L25.319,235.379 L4.488,235.379 L4.488,196.197 L82.355,196.197 L85.207,200.909 ZM85.83,257.577 L85.951,257.577 L85.951,246.170 L97.111,246.170 L97.111,268.117 L63.880,278.656 L25.71,288.823 L25.71,289.195 L64.500,286.716 L97.111,286.716 L97.111,297.751 L4.488,297.751 L4.488,285.724 L50.117,271.216 L80.496,262.785 L80.496,262.413 L49.125,263.901 L4.488,263.901 L4.488,252.865 L82.231,252.865 L85.83,257.577 ZM14.779,319.949 L83.471,319.949 L86.323,324.661 L87.191,324.661 L87.191,310.898 L97.483,310.898 L97.483,339.912 L87.191,339.912 L87.191,331.233 L14.779,331.233 L14.779,341.276 L4.488,341.276 L4.488,309.906 L14.779,309.906 L14.779,319.949 Z"/>
</svg>