<svg 
 xmlns="http://www.w3.org/2000/svg"
 xmlns:xlink="http://www.w3.org/1999/xlink"
 width="103px" height="400px">
<path fill-rule="evenodd"  stroke-width="1px" stroke="rgb(255, 255, 255)" fill-opacity="0" fill="rgb(255, 255, 255)"
 d="M84.587,115.719 L18.995,115.719 L4.116,101.708 L4.116,83.853 L18.995,69.966 L84.587,69.966 L98.599,83.977 L98.599,101.708 L84.587,115.719 ZM87.439,88.564 L80.0,81.125 L23.335,81.125 L15.275,88.688 L15.275,96.872 L23.335,104.436 L80.0,104.436 L87.439,96.996 L87.439,88.564 ZM49.993,53.843 L34.990,39.584 L34.990,21.605 L4.488,21.605 L4.488,10.321 L82.727,10.321 L85.579,15.33 L86.447,15.33 L86.447,3.626 L97.359,3.626 L97.359,39.460 L83.223,53.843 L49.993,53.843 ZM86.75,21.605 L46.273,21.605 L46.273,34.748 L54.457,42.436 L78.512,42.436 L86.75,34.872 L86.75,21.605 ZM84.91,133.82 L98.227,146.597 L98.227,164.204 L84.91,177.719 L70.80,177.719 L70.80,166.436 L79.628,166.436 L86.943,159.368 L86.943,151.308 L79.628,144.365 L23.87,144.365 L15.151,151.432 L15.151,159.244 L23.87,166.436 L33.378,166.436 L33.502,177.719 L18.871,177.719 L3.868,164.204 L3.868,146.473 L18.871,133.82 L84.91,133.82 ZM84.959,199.917 L85.827,199.917 L85.827,188.758 L97.111,188.758 L97.111,206.613 L56.193,206.613 L56.193,227.568 L97.111,227.568 L97.111,238.851 L4.488,238.851 L4.488,227.568 L45.406,227.568 L45.406,206.613 L4.488,206.613 L4.488,195.329 L82.231,195.329 L84.959,199.917 ZM14.779,261.49 L83.471,261.49 L86.323,265.761 L87.191,265.761 L87.191,251.998 L97.483,251.998 L97.483,281.12 L87.191,281.12 L87.191,272.333 L14.779,272.333 L14.779,282.376 L4.488,282.376 L4.488,251.6 L14.779,251.6 L14.779,261.49 ZM87.315,298.1 L77.520,297.505 L77.520,288.330 L97.483,288.330 L97.483,339.291 L77.520,339.291 L77.520,329.991 L87.315,329.619 L87.315,319.328 L4.488,319.328 L4.488,308.45 L87.315,308.45 L87.315,298.1 ZM85.207,362.729 L86.75,362.729 L86.75,353.57 L97.359,353.57 L97.359,382.196 L4.488,395.959 L4.488,384.552 L28.666,380.956 L28.666,361.613 L4.488,358.17 L4.488,346.610 L82.355,358.17 L85.207,362.729 ZM39.950,379.344 L86.75,372.400 L86.75,370.44 L39.950,363.225 L39.950,379.344 Z"/>
</svg>