<?xml version="1.0" encoding="UTF-8"?>
<svg id="_レイヤー_2" data-name="レイヤー 2" xmlns="http://www.w3.org/2000/svg" width="76.9" height="632.73" viewBox="0 0 76.9 632.73">
  <defs>
    <style>
      .cls-1 {
        fill: rgba(255, 255, 255, 0);
        fill-rule: evenodd;
        stroke: #fff;
      }
    </style>
  </defs>
  <g id="_レイヤー_1-2" data-name="レイヤー 1">
    <path class="cls-1" d="M65.2,295.38h-11.5v-9h7.8l5.9-5.6v-6.3l-5.9-5.26h-10.4l-18.8,26.56H12.1l-11.6-11v-14.3l11.6-11h13.7v9H15.7l-6.2,5.9v6.85l6.2,5.65h12.71l17.99-26.67h18.8l11.2,10.47v14l-11.2,10.7Zm-7-76.1h8.6v-12.5h-23.39v16.9h-9.91v-16.9H10.1v13.4h7.7v9.1H1v-31.6H63.8l2.3,3.8h.7v-9.1h9.1v36h-17.7v-9.1Zm-21.2-63.8H1v-8.9H63.7l2.3,3.8h.7v-9.2h9v17.7l-26.8,8.5-30.5,8.2v.3l31-2h26.3v8.9H1v-9.7l36.8-11.7,24.5-6.8v-.3l-25.3,1.2ZM1,126.28l19.5-2.9v-15.6l-19.5-2.9v-9.2l62.8,9.2,2.3,3.8h.7v-7.8h9.1v23.5L1,135.48v-9.2Zm29.41-4.2l36.39-5.6v-1.9l-36.39-5.5v13ZM1,60.48v-9.1h63.43l1.47,3.8h1.53v-8.97h8.27v14.27h-29.28v4.8l29.28,14.3v10l-34.7-16.4L1,91.88v-10l35.5-16.6v-4.8H1Zm0-29.3l19.5-2.9V12.68L1,9.78V.58L63.8,9.78l2.3,3.8h.7V5.78h9.1V29.28L1,40.38v-9.2Zm29.41-3.95l36.39-5.85v-1.9L30.41,14.22v13.01Zm45.49,282.95v23.5L1,344.78v-9.2l19.5-2.9v-15.6l-19.5-2.9v-8.97l62.8,8.97,2.3,4.04h.7v-8.04h9.1Zm-45.49,8.2v13l36.39-5.6v-1.9l-36.39-5.5Zm37.02,40.4h-.13v-9.1h8.6v13.9l-67,5.3v1l59.8,9.35v10.05l-59.8,9.1v.9l67,5.3v9.3L1.39,406.88v-15.64l15.71-2.96,34.3-3.9v-.15l-34.1-4.15-15.91-2.7v-16.3l63.11-5.7,2.93,3.4Zm-1.33,74.9h.7v-7.8h9.1v23.5L1,460.48v-9.2l19.5-2.9v-15.6l-19.5-2.9v-9.2l62.8,9.2,2.3,3.8Zm-35.69,13.4l36.39-5.6v-1.9l-36.39-5.5v13Zm37.39,26.4l-7.9-.4v-7.4h16.1v41.1h-16.1v-7.5l7.9-.05v-8.55H1v-9.1H67.8v-8.1Zm-1.7,52.2h.7v-7.8h9.1v23.5L1,552.48v-9.2l19.5-2.9v-15.6l-19.5-2.9v-9.2l62.8,9.2,2.3,3.8Zm-35.69,13.4l36.39-5.6v-1.9l-36.39-5.5v13Zm35.59,28.2h.7v-9.07h9.2v27.27l-11.6,11.76h-25.9l-8.7-8.36-28.7,13.3v-10l25.2-11.7v-7.9H1v-9.1H63.7l2.3,3.8Zm-30.7,14.4l6.7,6.2h19.43l5.27-6.1v-9.2h-31.4v9.1Zm-26,33.1h55.4l2.3,3.8h.7v-11.1h8.3v23.4h-8.3v-7H9.3v8.35H1v-25.55H9.3v8.1Z"/>
  </g>
</svg>