<?xml version="1.0" encoding="UTF-8"?>
<svg id="_レイヤー_2" data-name="レイヤー 2" xmlns="http://www.w3.org/2000/svg" width="76.9" height="473.9" viewBox="0 0 76.9 473.9">
  <defs>
    <style>
      .cls-1 {
        fill: rgba(255, 255, 255, 0);
        fill-rule: evenodd;
        stroke: #fff;
      }
    </style>
  </defs>
  <g id="_レイヤー_1-2" data-name="レイヤー 1">
    <path class="cls-1" d="M65.2,36.4h-11.5v-9h7.8l5.9-5.6v-6.3l-5.9-5.5h-10.4l-18.8,26.8H12.1L.5,25.8V11.5L12.1,.5h13.7V9.5H15.7l-6.2,5.9v6.6l6.2,5.9h12.71L46.4,1h18.8l11.2,10.7v14l-11.2,10.7ZM9.7,473.4H1v-31.7H75.9v9.1H9.7v22.6Zm66.3-46.2H1v-8.87H76v8.87ZM1,122.5H75.7v23.9l-11.2,11.2H12.3l-11.3-11.2v-23.9Zm9.1,20.1l5.9,5.9H60.8l6.63-5.9v-11H10.1v11ZM1,171.9H75.9v30.7h-9.1v-21.6h-23.39v18.35h-9.91v-18.35H10.1v23H1v-32.1Zm0,108.3h63.43l1.47,3.8h1.53v-9.2h8.27v29.55l-11.2,10.95H12.3l-11.3-10.95v-24.15Zm9.1,20.1l5.9,5.9H60.8l6.63-5.9v-11H10.1v11ZM1,361.7v-32.1H75.9v30.7h-9.1v-21.6h-23.39v18.1h-9.91v-18.1H10.1v23H1Zm0-138.3v-9.1H75.9v22l-11.6,11.5h-25.9l-8.7-8.1L1,253v-10l25.2-11.7v-7.9H1Zm34.3,9.1l6.7,6.2h19.43l5.27-6.1v-9.2h-31.4v9.1ZM26.4,73.9v-14.5H1v-9.1H75.9v23.5l-11.4,11.6h-26.8l-11.3-11.5Zm34.3,2.3l6.1-5.85v-10.95H34.7v10.6l6.6,6.2h19.4Zm15.3,31.6H1v-9.1H76v9.1Zm0,290.9v9.2L1.39,396.5v-17.8l74.61-11.2v9.3l-66.3,9.8v2.1l66.3,10Z"/>
  </g>
</svg>