<svg 
 xmlns="http://www.w3.org/2000/svg"
 xmlns:xlink="http://www.w3.org/1999/xlink"
 width="103px" height="360px">
<path fill-rule="evenodd"  stroke-width="1px" stroke="rgb(255, 255, 255)" fill-opacity="0" fill="rgb(255, 255, 255)"
 d="M84.587,355.907 L18.995,355.907 L4.116,341.896 L4.116,324.41 L18.995,310.154 L84.587,310.154 L98.599,324.165 L98.599,341.896 L84.587,355.907 ZM87.439,328.752 L80.0,321.313 L23.335,321.313 L15.275,328.876 L15.275,337.60 L23.335,344.624 L80.0,344.624 L87.439,337.184 L87.439,328.752 ZM60.533,145.107 L97.359,150.439 L97.359,172.882 L4.612,172.882 L4.612,161.847 L86.323,161.847 L86.323,160.235 L13.43,149.75 L13.43,134.816 L86.323,123.285 L86.323,121.673 L4.612,121.673 L4.612,110.637 L82.727,110.637 L85.455,115.101 L86.323,115.101 L86.323,103.942 L97.359,103.942 L97.359,133.80 L61.29,138.412 L28.171,141.636 L28.171,142.8 L60.533,145.107 ZM4.488,191.237 L82.355,191.237 L85.207,195.949 L86.75,195.949 L86.75,184.666 L97.359,184.666 L97.359,229.303 L75.412,229.303 L75.412,218.20 L86.75,218.20 L86.75,202.521 L56.69,202.521 L56.69,223.476 L44.786,223.476 L44.786,202.521 L15.771,202.521 L15.771,219.136 L25.319,219.136 L25.319,230.419 L4.488,230.419 L4.488,191.237 ZM49.125,258.941 L4.488,258.941 L4.488,247.905 L82.231,247.905 L85.83,252.617 L85.951,252.617 L85.951,241.210 L97.111,241.210 L97.111,263.157 L63.880,273.696 L25.71,283.863 L25.71,284.235 L64.500,281.756 L97.111,281.756 L97.111,292.791 L4.488,292.791 L4.488,280.764 L50.117,266.256 L80.496,257.825 L80.496,257.453 L49.125,258.941 ZM87.191,87.449 L14.779,87.449 L14.779,97.492 L4.488,97.492 L4.488,66.122 L14.779,66.122 L14.779,76.165 L83.471,76.165 L86.323,80.877 L87.191,80.877 L87.191,67.114 L97.483,67.114 L97.483,96.128 L87.191,96.128 L87.191,87.449 ZM4.488,42.684 L45.406,42.684 L45.406,21.729 L4.488,21.729 L4.488,10.445 L82.231,10.445 L84.959,15.33 L85.827,15.33 L85.827,3.874 L97.111,3.874 L97.111,21.729 L56.193,21.729 L56.193,42.684 L97.111,42.684 L97.111,53.967 L4.488,53.967 L4.488,42.684 Z"/>
</svg>