<svg xmlns="http://www.w3.org/2000/svg" width="76.406" height="541.315" viewBox="0 0 76.406 541.315">
  <defs>
    <style>
      .cls-1 {
        fill: #fff;
        fill-opacity: 0;
        stroke: #fff;
        stroke-linejoin: round;
        stroke-width: 1px;
        fill-rule: evenodd;
      }
    </style>
  </defs>
  <path id="chara_4_name.svg" class="cls-1" d="M928.59,1005.53v-13l37.2,5.5v1.9Zm37.2-21.2v7.8h-0.7l-2.3-3.8-62.8-9.2v9.2l19.5,2.9v15.6l-19.5,2.9v9.2l74.9-11.1v-23.5h-9.1Zm8.9,54.7v-14.5h-9.1v9.2h-0.7l-2.3-3.8h-62.6v9.1h35.5v4.8l-35.5,16.6v10l40-18.7,34.7,16.4v-10l-30.1-14.3v-4.8h30.1Zm-74.7,60.2h8.3v-8.1h58.4v7h8.3v-23.4h-8.3v11.1h-0.7l-2.3-3.8h-55.4v-8.1h-8.3v25.3Zm65.6,23.6v9h-0.7l-2.2-3.7h-62.7v9.1h33v16.9h-33v9.1h74.7v-9.1h-33v-16.9h33v-14.4h-9.1Zm-37,76.9v-13l37.2,5.5v1.9Zm37.2-21.2v7.8h-0.7l-2.3-3.8-62.8-9.2v9.2l19.5,2.9v15.6l-19.5,2.9v9.2l74.9-11.1v-23.5h-9.1Zm-27.1,62.4,19.9-5.9,16.4-5.8v-12.4h-8.5v9.9h-0.7l-1.9-3.2-36.1,13.1h-27.8v9.1h27.8l47.2,17.2v-9.6l-16.2-5.7-20.1-6.1v-0.6Zm-10.1,54.3v-13l37.2,5.5v1.9Zm37.2-21.2v7.8h-0.7l-2.3-3.8-62.8-9.2v9.2l19.5,2.9v15.6l-19.5,2.9v9.2l74.9-11.1v-23.5h-9.1Zm8.9,54.7v-14.5h-9.1v9.2h-0.7l-2.3-3.8h-62.6v9.1h35.5v4.8l-35.5,16.6v10l40-18.7,34.7,16.4v-10l-30.1-14.3v-4.8h30.1Zm-46.1,61.6v-13l37.2,5.5v1.9Zm37.2-21.2v7.8h-0.7l-2.3-3.8-62.8-9.2v9.2l19.5,2.9v15.6l-19.5,2.9v9.2l74.9-11.1v-23.5h-9.1Zm9.1,53.4v-13.9h-8.6v9.1h-0.7l-2.1-3.4-63.9,5.7v16.3l16.7,2.7,34.1,3.9v0.4l-34.3,3.9-16.5,2.7v15.9l75.305,7v-9.3l-67-5.3v-0.9l59.8-9.1v-10.3l-59.8-9.1v-1Zm-46.3,83.5v-13l37.2,5.5v1.9Zm37.2-21.2v7.8h-0.7l-2.3-3.8-62.8-9.2v9.2l19.5,2.9v15.6l-19.5,2.9v9.2l74.9-11.1v-23.5h-9.1Z" transform="translate(-899.094 -978.625)"/>
</svg>
