<svg 
 xmlns="http://www.w3.org/2000/svg"
 xmlns:xlink="http://www.w3.org/1999/xlink"
 width="102px" height="566px">
<path fill-rule="evenodd"  stroke-width="1px" stroke="rgb(255, 255, 255)" fill-opacity="0" fill="rgb(255, 255, 255)"
 d="M84.91,48.355 L69.832,48.355 L69.832,37.196 L79.504,37.196 L86.819,30.252 L86.819,22.441 L79.504,15.621 L66.608,15.621 L43.298,48.851 L18.251,48.851 L3.868,35.212 L3.868,17.481 L18.251,3.842 L35.238,3.842 L35.238,15.1 L22.715,15.1 L15.27,22.317 L15.27,30.500 L22.715,37.816 L37.470,37.816 L60.781,4.462 L84.91,4.462 L97.979,17.729 L97.979,35.88 L84.91,48.355 ZM97.111,77.1 L56.193,77.1 L56.193,97.956 L97.111,97.956 L97.111,109.239 L4.488,109.239 L4.488,97.956 L45.406,97.956 L45.406,77.1 L4.488,77.1 L4.488,65.717 L97.111,65.717 L97.111,77.1 ZM97.359,156.112 L4.488,169.875 L4.488,158.468 L28.666,154.872 L28.666,135.529 L4.488,131.933 L4.488,120.526 L97.359,134.289 L97.359,156.112 ZM86.75,143.961 L39.950,137.141 L39.950,153.260 L86.75,146.316 L86.75,143.961 ZM97.359,209.184 L82.975,223.443 L50.861,223.443 L40.74,213.400 L4.488,229.891 L4.488,217.491 L35.734,202.984 L35.734,193.189 L4.488,193.189 L4.488,181.905 L97.359,181.905 L97.359,209.184 ZM85.951,193.189 L47.17,193.189 L47.17,204.472 L55.325,212.160 L78.388,212.160 L85.951,204.596 L85.951,193.189 ZM97.111,251.717 L59.789,251.717 L59.789,257.668 L97.111,275.399 L97.111,287.799 L54.85,267.464 L4.488,290.651 L4.488,278.251 L48.505,257.668 L48.505,251.717 L4.488,251.717 L4.488,240.433 L97.111,240.433 L97.111,251.717 ZM96.987,361.331 L85.827,361.331 L85.827,334.673 L53.837,334.673 L53.837,356.992 L42.554,356.992 L42.554,334.673 L4.488,334.673 C4.488,330.953 4.488,327.233 4.488,323.389 L96.987,323.389 C96.987,338.393 96.987,346.328 96.987,361.331 ZM97.483,385.389 L4.488,385.389 L4.488,374.105 L97.483,374.105 C97.483,383.777 97.483,375.717 97.483,385.389 ZM97.359,441.559 L86.75,441.559 L86.75,414.777 L56.69,414.777 L56.69,437.220 L44.786,437.220 L44.786,414.777 L15.771,414.777 L15.771,443.295 L4.488,443.295 L4.488,403.493 L97.359,403.493 C97.359,418.497 97.359,426.556 97.359,441.559 ZM97.111,471.197 L63.880,481.736 L29.162,491.283 L29.162,491.655 L64.500,489.548 L97.111,489.548 L97.111,500.831 L4.488,500.831 L4.488,488.804 L50.117,474.296 L77.520,466.237 L77.520,465.865 L49.125,467.229 L4.488,467.229 L4.488,455.946 L97.111,455.946 L97.111,471.197 ZM97.111,548.448 L83.223,562.335 L18.499,562.335 L4.488,548.448 C4.488,538.528 4.488,528.609 4.488,518.813 L97.111,518.813 L97.111,548.448 ZM85.827,530.97 L15.771,530.97 L15.771,543.736 L23.87,551.52 L78.636,551.52 L85.827,543.736 L85.827,530.97 Z"/>
</svg>