<?xml version="1.0" encoding="UTF-8"?>
<svg id="_レイヤー_2" data-name="レイヤー 2" xmlns="http://www.w3.org/2000/svg" width="77.4" height="608.4" viewBox="0 0 77.4 608.4">
  <defs>
    <style>
      .cls-1 {
        fill: rgba(255, 255, 255, 0);
        fill-rule: evenodd;
        stroke: #fff;
      }
    </style>
  </defs>
  <g id="_レイヤー_1-2" data-name="レイヤー 1">
    <path class="cls-1" d="M66.43,509.6H12.7l-12-11.3v-14.4l12-11.2h53.73l10.47,11.3v14.3l-10.47,11.3Zm1.47-21.9l-6-6H16.2l-6.5,6.1v6.6l6.5,6.1H61.9l6-6v-6.8Zm-14.2-98.2v-9h7.8l5.9-5.6v-6.3l-5.9-5.26h-10.4l-18.8,26.56H12.1l-11.6-11v-14.3l11.6-11h13.7v9H15.7l-6.2,5.9v6.85l6.2,5.65h12.71l17.99-26.67h18.8l11.2,10.47v14l-11.2,10.7h-11.5ZM75.9,51.2v23.5L1,85.8v-9.2l19.5-2.9v-15.36L1,55.2v-9.2l62.8,9.2,2.3,3.8h.7v-7.8h9.1Zm-45.49,8.2v13l36.39-5.6v-1.9l-36.39-5.5Zm15.79,65.2l29.7,4.3v18.1H1.1v-8.64H67v-1.56L7.9,127.8v-11.5l59.1-9.3v-1.3H1.1v-8.9h63l2.2,3.6h.7v-9h8.9v23.5l-28.48,4.3-27.32,2.6v.55l26.1,2.25ZM1.39,172.7l12.01-10.8h51.3l2.3,3.8h.7v-9.2h8.3v14.5H16l-6.3,5.7v6l6.3,5.7h60v9.1H13.4l-12.01-10.7v-14.1Zm-.39,154.1v-25.3H9.3v8.1h55.4l2.3,3.8h.7v-11.1h8.3v23.4h-8.3v-7H9.3v8.1H1Zm0-61.8v-9.2l62.8,9.2,2.3,3.8h.7v-7.8h9.1v23.5L1,295.6v-9.2l19.5-2.9v-15.6l-19.5-2.9Zm29.41,17.2l36.39-5.6v-1.9l-36.39-5.5v13ZM1,221.4v-9.1H63.7l2.3,4.04h.7v-9.54h9.2v27.5l-11.6,11.5h-25.9l-8.7-8.1L1,251v-10l25.2-11.7v-7.9H1Zm34.3,9.1l6.7,6.2h19.43l5.27-6.1v-9.2h-31.4v9.1ZM53.7,36.4v-9h7.8l5.9-5.6v-6.3l-5.9-5.5h-10.4l-18.8,26.8H12.1L.5,25.8V11.5L12.1,.5h13.7V9.5H15.7l-6.2,5.9v6.6l6.2,5.9h12.71L46.4,1h18.8l11.2,10.7v14l-11.2,10.7h-11.5Zm13.73,370.5h-.13v-9.1h8.6v13.9l-67,5.3v1l59.8,9.35v10.05l-59.8,9.1v.9l67,5.3v9.3L1.39,455v-15.64l15.71-2.96,34.3-3.9v-.15l-34.1-4.15-15.91-2.7v-16.3l63.11-5.7,2.93,3.4Zm-1.43,121.4h.7v-9.3h9.2v27.5l-11.6,11.5h-25.9l-8.7-8.1-28.7,13.3v-10l25.2-11.7v-7.9H1v-9.1H63.7l2.3,3.8Zm-30.7,14.4l6.7,6.2h19.43l5.27-6.1v-9.2h-31.4v9.1Zm30.6,33.9h1.53v-9.2h8.27v29.3l-11.2,11.2H12.3l-11.3-11.2v-23.9h63.43l1.47,3.8Zm-55.8,16.3l5.9,5.9H60.8l6.63-5.9v-11H10.1v11Z"/>
  </g>
</svg>