<svg 
 xmlns="http://www.w3.org/2000/svg"
 xmlns:xlink="http://www.w3.org/1999/xlink"
 width="79px" height="682px">
<path fill-rule="evenodd"  stroke-width="1px" stroke="rgb(255, 255, 255)" fill-opacity="0" fill="rgb(255, 255, 255)"
 d="M64.567,256.696 L15.369,256.696 L4.209,246.187 L4.209,232.794 L15.369,222.378 L64.567,222.378 L75.77,232.887 L75.77,246.187 L64.567,256.696 ZM66.706,236.329 L61.126,230.748 L18.624,230.748 L12.579,236.422 L12.579,242.560 L18.624,248.233 L61.126,248.233 L66.706,242.653 L66.706,236.329 ZM4.488,200.709 L74.240,200.709 C74.240,207.963 74.240,201.918 74.240,209.172 L4.488,209.172 L4.488,200.709 ZM4.116,164.67 L63.451,155.325 L65.590,158.487 L66.148,158.487 L66.148,149.838 L74.240,149.838 L74.240,162.300 L12.207,171.415 L12.207,173.368 L74.240,182.668 L74.240,191.224 L4.116,180.622 L4.116,164.67 ZM4.488,128.170 L4.488,98.316 L74.147,98.316 C74.147,109.569 74.147,115.615 74.147,126.868 L65.683,126.868 L65.683,106.779 L43.177,106.779 L43.177,123.613 L34.714,123.613 L34.714,106.779 L12.951,106.779 L12.951,128.170 L4.488,128.170 ZM4.488,60.744 L4.488,52.281 L73.961,52.281 L73.961,60.744 L43.270,60.744 L43.270,76.462 L73.961,76.462 L73.961,84.925 L4.488,84.925 L4.488,76.462 L35.179,76.462 L35.179,60.744 L4.488,60.744 ZM59.266,35.728 L66.613,35.449 L66.613,27.730 L4.488,27.730 L4.488,19.266 L66.613,19.266 L66.613,11.733 L59.266,11.361 L59.266,4.479 L74.240,4.479 L74.240,42.703 L59.266,42.703 L59.266,35.728 ZM37.969,356.205 L4.488,356.205 L4.488,347.742 L73.961,347.742 L73.961,359.181 L49.36,367.87 L22.995,374.248 L22.995,374.527 L49.501,372.946 L73.961,372.946 L73.961,381.409 L4.488,381.409 L4.488,372.388 L38.713,361.507 L59.266,355.461 L59.266,355.182 L37.969,356.205 ZM74.147,336.955 L65.683,336.955 L65.683,316.866 L43.177,316.866 L43.177,333.700 L34.714,333.700 L34.714,316.866 L12.951,316.866 L12.951,338.257 L4.488,338.257 L4.488,308.403 L74.147,308.403 C74.147,319.656 74.147,325.702 74.147,336.955 ZM4.488,299.476 L4.488,269.994 L74.147,269.994 L74.147,278.457 L12.579,278.457 L12.579,299.476 L4.488,299.476 ZM64.195,394.428 L74.798,404.565 L74.798,417.772 L64.195,427.909 L53.686,427.909 L53.686,419.446 L60.847,419.446 L66.334,414.145 L66.334,408.100 L60.847,402.891 L18.438,402.891 L12.486,408.193 L12.486,414.52 L18.438,419.446 L26.157,419.446 L26.250,427.909 L15.276,427.909 L4.23,417.772 L4.23,404.472 L15.276,394.428 L64.195,394.428 ZM74.147,469.108 L65.683,469.108 L65.683,449.19 L43.177,449.19 L43.177,465.853 L34.714,465.853 L34.714,449.19 L12.951,449.19 L12.951,470.410 L4.488,470.410 L4.488,440.556 L74.147,440.556 C74.147,451.809 74.147,457.855 74.147,469.108 ZM64.846,501.6 L65.497,501.6 L65.497,492.543 L73.868,492.543 L73.868,525.931 L57.499,525.931 L57.499,517.654 L65.497,517.654 L65.497,505.935 L41.503,505.935 L41.503,521.560 L33.40,521.560 L33.40,505.935 L4.488,505.935 L4.488,497.472 L62.707,497.472 L64.846,501.6 ZM74.240,545.88 L4.488,545.88 L4.488,536.625 L74.240,536.625 C74.240,543.879 74.240,537.834 74.240,545.88 ZM74.147,587.218 L65.683,587.218 L65.683,567.129 L43.177,567.129 L43.177,583.963 L34.714,583.963 L34.714,567.129 L12.951,567.129 L12.951,588.520 L4.488,588.520 L4.488,558.666 L74.147,558.666 C74.147,569.919 74.147,575.965 74.147,587.218 ZM73.961,609.444 L49.36,617.350 L22.995,624.511 L22.995,624.790 L49.501,623.209 L73.961,623.209 L73.961,631.672 L4.488,631.672 L4.488,622.651 L38.713,611.770 L59.266,605.724 L59.266,605.445 L37.969,606.468 L4.488,606.468 L4.488,598.5 L73.961,598.5 L73.961,609.444 ZM73.961,667.384 L63.544,677.800 L14.997,677.800 L4.488,667.384 C4.488,659.944 4.488,652.503 4.488,645.156 L73.961,645.156 L73.961,667.384 ZM65.497,653.619 L12.951,653.619 L12.951,663.850 L18.438,669.337 L60.103,669.337 L65.497,663.850 L65.497,653.619 Z"/>
</svg>