<svg 
 xmlns="http://www.w3.org/2000/svg"
 xmlns:xlink="http://www.w3.org/1999/xlink"
 width="100px" height="278px">
<path fill-rule="evenodd"  stroke-width="1px" stroke="rgb(255, 255, 255)" fill-opacity="0" fill="rgb(255, 255, 255)"
 d="M86.191,272.456 L86.191,263.777 L13.779,263.777 L13.779,273.820 L3.488,273.820 L3.488,242.450 L13.779,242.450 L13.779,252.493 L82.471,252.493 L85.323,257.205 L86.191,257.205 L86.191,243.442 L96.483,243.442 L96.483,272.456 L86.191,272.456 ZM74.412,98.980 L85.75,98.980 L85.75,83.481 L55.69,83.481 L55.69,104.436 L43.786,104.436 L43.786,83.481 L14.771,83.481 L14.771,100.96 L24.319,100.96 L24.319,111.379 L3.488,111.379 L3.488,72.197 L81.355,72.197 L84.207,76.909 L85.75,76.909 L85.75,65.626 L96.359,65.626 L96.359,110.263 L74.412,110.263 L74.412,98.980 ZM17.499,53.843 L3.488,39.956 L3.488,10.321 L81.107,10.321 L83.959,15.33 L84.827,15.33 L84.827,3.626 L96.111,3.626 L96.111,39.956 L82.223,53.843 L17.499,53.843 ZM84.827,21.605 L14.771,21.605 L14.771,35.244 L22.87,42.560 L77.636,42.560 L84.827,35.244 L84.827,21.605 ZM84.83,133.577 L84.951,133.577 L84.951,122.170 L96.111,122.170 L96.111,144.117 L62.880,154.656 L24.71,164.823 L24.71,165.195 L63.500,162.716 L96.111,162.716 L96.111,173.751 L3.488,173.751 L3.488,161.724 L49.117,147.216 L79.496,138.785 L79.496,138.413 L48.125,139.901 L3.488,139.901 L3.488,128.865 L81.231,128.865 L84.83,133.577 ZM37.710,186.774 L37.710,198.57 L21.963,198.57 L13.903,204.877 L13.903,212.68 L21.963,218.888 L82.223,218.888 L85.75,223.600 L85.943,223.600 L85.943,195.577 L96.235,195.577 L96.235,230.295 L17.747,230.295 L3.488,218.20 L3.488,199.49 L17.747,186.774 L37.710,186.774 Z"/>
</svg>