<svg xmlns="http://www.w3.org/2000/svg" width="93.969" height="368.405" viewBox="0 0 93.969 368.405">
  <defs>
    <style>
      .cls-1 {
        fill: #fff;
        fill-opacity: 0;
        stroke: #fff;
        stroke-linejoin: round;
        stroke-width: 1px;
        fill-rule: evenodd;
      }
    </style>
  </defs>
  <path id="chara_2_name.svg" class="cls-1" d="M299.112,1036.03v11.04h92.747v-22.45l-36.826-5.33-32.362-3.1v-0.37l32.858-3.22,36.33-5.34V978.126H380.824v11.16h-0.868l-2.728-4.464H299.112v11.035h81.712v1.612L307.544,1009v14.26l73.28,11.16v1.61H299.112Zm35.338,56.17v-16.11l46.126,6.81v2.36Zm46.126-26.28v9.67h-0.868l-2.852-4.71-77.868-11.41v11.41l24.179,3.59v19.35l-24.179,3.59v11.41l92.871-13.76v-29.14H380.576Zm11.035,67.83v-17.98H380.328v11.4H379.46l-2.852-4.71h-77.62v11.29h44.018v5.95l-44.018,20.58v12.4l49.6-23.19,43.025,20.34v-12.4l-37.322-17.73v-5.95h37.322Zm-92.623,74.64H309.28v-10.04h72.412v8.68h10.291v-29.02H381.692v13.77h-0.868l-2.852-4.71H309.28v-10.05H298.988v31.37Zm0.124,64.36v11.03h92.747v-22.44l-36.826-5.33-32.362-3.1v-0.37l32.858-3.23,36.33-5.33v-29.14H380.824V1226h-0.868l-2.728-4.46H299.112v11.03h81.712v1.62l-73.28,11.53v14.26l73.28,11.16v1.61H299.112Zm35.338,56.17V1312.8l46.126,6.82v2.36Zm46.126-26.29v9.68h-0.868l-2.852-4.72-77.868-11.4v11.4l24.179,3.6v19.34l-24.179,3.6v11.41l92.871-13.77v-29.14H380.576Z" transform="translate(-298.5 -977.625)"/>
</svg>
