<svg xmlns="http://www.w3.org/2000/svg" xmlns:xlink="http://www.w3.org/1999/xlink" width="102px" height="375px">
  <path fill-rule="evenodd" stroke-width="1px" stroke="rgb(255, 255, 255)" fill-opacity="0" fill="rgb(255, 255, 255)" d="M84.91,151.431 L69.832,151.431 L69.832,140.272 L79.504,140.272 L86.819,133.328 L86.819,125.517 L79.504,118.697 L66.608,118.697 L43.298,151.927 L18.251,151.927 L3.868,138.288 L3.868,120.557 L18.251,106.918 L35.238,106.918 L35.238,118.77 L22.715,118.77 L15.27,125.393 L15.27,133.576 L22.715,140.892 L37.470,140.892 L60.781,107.538 L84.91,107.538 L97.979,120.805 L97.979,138.164 L84.91,151.431 ZM87.191,86.209 L14.779,86.209 L14.779,96.252 L4.488,96.252 L4.488,64.882 L14.779,64.882 L14.779,74.925 L83.471,74.925 L86.323,79.637 L87.191,79.637 L87.191,65.874 L97.483,65.874 L97.483,94.888 L87.191,94.888 L87.191,86.209 ZM4.488,60.539 L4.488,48.139 L48.505,27.556 L48.505,21.605 L4.488,21.605 L4.488,10.321 L82.107,10.321 L84.959,15.33 L85.827,15.33 L85.827,3.626 L97.111,3.626 L97.111,21.605 L59.789,21.605 L59.789,27.556 L97.111,45.287 L97.111,57.687 L54.85,37.352 L4.488,60.539 ZM84.959,174.1 L85.827,174.1 L85.827,162.842 L97.111,162.842 L97.111,180.697 L56.193,180.697 L56.193,201.652 L97.111,201.652 L97.111,212.935 L4.488,212.935 L4.488,201.652 L45.406,201.652 L45.406,180.697 L4.488,180.697 L4.488,169.413 L82.231,169.413 L84.959,174.1 ZM14.779,235.133 L83.471,235.133 L86.323,239.845 L87.191,239.845 L87.191,226.82 L97.483,226.82 L97.483,255.96 L87.191,255.96 L87.191,246.417 L14.779,246.417 L14.779,256.460 L4.488,256.460 L4.488,225.90 L14.779,225.90 L14.779,235.133 ZM84.835,274.441 L85.703,274.441 L85.703,263.158 L97.235,263.158 L97.235,297.8 L83.223,310.895 L60.533,310.895 L52.349,304.75 L43.174,313.375 L18.375,313.375 L4.488,299.488 L4.488,269.729 L81.983,269.729 L84.835,274.441 ZM45.778,281.137 L15.895,281.137 L15.895,294.776 L23.87,301.968 L37.966,301.968 L45.778,294.32 L45.778,281.137 ZM57.185,292.916 L64.996,299.488 L78.512,299.488 L85.703,292.296 L85.703,281.137 L57.185,281.137 L57.185,292.916 ZM85.207,336.193 L86.75,336.193 L86.75,324.910 L97.359,324.910 L97.359,369.547 L75.412,369.547 L75.412,358.264 L86.75,358.264 L86.75,342.765 L56.69,342.765 L56.69,363.720 L44.786,363.720 L44.786,342.765 L15.771,342.765 L15.771,359.380 L25.319,359.380 L25.319,370.663 L4.488,370.663 L4.488,331.481 L82.355,331.481 L85.207,336.193 Z" />
</svg>