<svg xmlns="http://www.w3.org/2000/svg" width="95.594" height="322.535" viewBox="0 0 95.594 322.535">
  <defs>
    <style>
      .cls-1 {
        fill: #fff;
        fill-opacity: 0;
        stroke: #fff;
        stroke-linejoin: round;
        stroke-width: 1px;
        fill-rule: evenodd;
      }
    </style>
  </defs>
  <path id="chara_3_name.svg" class="cls-1" d="M641.774,995.105h39.8v13.265l-7.564,7.57H649.958l-8.184-7.69V995.105Zm51.085,17.855V977.126H681.948v11.408H681.08l-2.852-4.712h-78.24v11.283h30.5v17.975l15,14.26h33.23Zm-12.771,76.26,14.011-14.01v-17.73l-14.011-14.01H614.5l-14.88,13.88v17.86l14.88,14.01h65.592Zm-69.312-18.85v-8.18l8.059-7.56H675.5l7.44,7.43v8.44l-7.44,7.44H618.835Zm82.083,47v-17.24H682.2v11.29h-0.868l-2.6-4.22-79.232,7.07v20.21l20.707,3.35,42.282,4.83v0.5l-42.53,4.84-20.459,3.34v19.72l93.367,8.68v-11.53l-83.075-6.58v-1.11l74.148-11.28v-12.78l-74.148-11.28v-1.24Zm-41.29,88.04h30.007v15.5H670.912v11.28h21.947v-44.64H681.576v11.29h-0.868l-2.852-4.71H599.988v39.18h20.831v-11.29h-9.547v-16.61h29.014v20.95h11.283v-20.95Zm29.883,56.54v11.41l-7.564,7.56H650.825l-8.307-7.68v-11.29h38.934Zm-50.217,0v9.8l-31.247,14.51v12.4l35.586-16.5,10.788,10.05h32.114l14.383-14.26v-34.1H681.452v11.53h-0.868l-2.852-4.71H599.988v11.28h31.247Z" transform="translate(-599 -976.625)"/>
</svg>
