<svg xmlns="http://www.w3.org/2000/svg" xmlns:xlink="http://www.w3.org/1999/xlink" width="713px" height="113px">
  <path fill-rule="evenodd" stroke-width="1px" stroke="rgb(51, 51, 51)" fill-opacity="0" fill="rgb(255, 255, 255)" d="M693.387,108.660 L659.928,108.660 L659.928,21.20 L665.248,17.800 L665.248,16.820 L652.368,16.820 L652.368,4.80 L693.387,4.80 L709.67,19.760 L709.67,92.840 L693.387,108.660 ZM696.327,24.940 L688.67,16.820 L672.667,16.820 L672.667,95.920 L688.67,95.920 L696.327,87.660 L696.327,24.940 ZM603.927,109.220 L590.768,19.900 L595.528,16.680 L595.528,15.840 L582.508,15.840 L582.508,3.660 L601.268,3.660 L614.987,97.40 L617.927,97.40 L631.927,3.660 L644.807,3.660 L628.847,109.220 L603.927,109.220 ZM520.768,108.660 L520.768,21.20 L526.88,17.800 L526.88,16.820 L513.208,16.820 L513.208,4.80 L554.227,4.80 L569.907,19.760 L569.907,92.840 L554.227,108.660 L520.768,108.660 ZM557.167,24.940 L548.907,16.820 L533.508,16.820 L533.508,95.920 L548.907,95.920 L557.167,87.660 L557.167,24.940 ZM498.507,108.660 L463.368,108.660 L447.688,92.980 L447.688,64.980 L459.28,54.620 L450.488,45.380 L450.488,19.760 L465.48,3.940 L484.367,3.940 L498.647,19.760 L498.647,31.240 L485.767,31.240 L485.767,25.80 L479.47,16.960 L470.367,16.960 L463.368,25.80 L463.368,40.340 L470.787,49.160 L504.807,49.160 L504.807,62.40 L498.507,62.40 L498.507,108.660 ZM485.627,62.40 L469.528,62.40 L460.568,70.860 L460.568,87.660 L468.687,95.780 L485.627,95.780 L485.627,62.40 ZM412.827,108.660 L400.88,108.660 L400.88,69.740 L381.748,19.200 L386.228,16.540 L386.228,15.560 L372.368,15.560 L372.368,3.660 L389.728,3.660 L397.848,26.620 L406.107,54.480 L406.947,54.480 L415.487,26.340 L423.467,3.660 L436.907,3.660 L412.827,69.740 L412.827,108.660 ZM350.247,81.360 L328.408,81.360 L324.348,108.660 L311.468,108.660 L324.348,20.740 L329.668,17.520 L329.668,16.540 L318.748,16.540 L318.748,3.800 L351.647,3.800 L367.187,108.660 L354.307,108.660 L350.247,81.360 ZM340.587,16.540 L337.927,16.540 L330.228,68.620 L348.427,68.620 L340.587,16.540 ZM255.48,20.740 L260.368,17.520 L260.368,16.540 L247.488,16.540 L247.488,3.800 L267.788,3.800 L267.788,96.480 L290.47,96.480 L290.47,85.280 L302.787,85.280 L302.787,108.660 L255.48,108.660 L255.48,20.740 ZM204.88,52.740 L246.228,52.740 L246.228,67.20 L204.88,67.20 L204.88,52.740 ZM159.148,109.220 L144.28,92.420 L144.28,19.480 L149.348,16.260 L149.348,15.280 L136.468,15.280 L136.468,3.660 L156.768,3.660 L156.768,87.660 L164.747,96.480 L173.147,96.480 L181.127,87.660 L181.127,3.660 L193.867,3.660 L193.867,92.420 L178.887,109.220 L159.148,109.220 ZM80.748,20.740 L86.68,17.520 L86.68,16.540 L73.188,16.540 L73.188,3.800 L93.488,3.800 L93.488,96.480 L115.747,96.480 L115.747,85.280 L128.487,85.280 L128.487,108.660 L80.748,108.660 L80.748,20.740 ZM11.28,108.660 L11.28,21.160 L16.348,17.940 L16.348,16.960 L3.608,16.960 L3.608,3.940 L41.827,3.940 L57.507,19.760 L57.507,45.380 L49.807,54.620 L60.307,64.980 L60.307,92.980 L44.627,108.660 L11.28,108.660 ZM44.627,25.80 L36.507,16.960 L23.908,16.960 L23.908,49.160 L37.207,49.160 L44.627,40.340 L44.627,25.80 ZM47.427,70.860 L38.467,62.40 L23.908,62.40 L23.908,95.780 L39.307,95.780 L47.427,87.660 L47.427,70.860 Z" />
</svg>