<svg xmlns="http://www.w3.org/2000/svg" width="393.437" height="107.969" viewBox="0 0 393.437 107.969">
  <defs>
    <style>
      .cls-1 {
        fill: #fff;
        fill-opacity: 0;
        stroke: #333;
        stroke-linejoin: round;
        stroke-width: 1px;
        fill-rule: evenodd;
      }
    </style>
  </defs>
  <path id="bg_comics.svg" class="cls-1" d="M206.788,170.1h12.74V154.281l-15.26-15.96h-19.88l-15.26,15.96V227.92l15.12,16.94h20.02l15.26-16.94V211.4l-12.74.14v11.62l-8.12,8.96h-8.82l-7.98-8.96V159.321l7.84-8.26h9.1l7.98,8.26V170.1Zm82.88-16.379-15.82-15.82h-20.02l-15.82,15.82V227.78l15.68,16.8h20.16l15.82-16.8V153.721Zm-21.28,78.259h-9.24l-8.54-9.1V158.9l8.4-8.4h9.52l8.4,8.4V222.88Zm99.96,12.04h12.46V139.3h-25.34l-6.02,41.579-3.5,36.54h-0.42l-3.64-37.1-6.02-41.019h-32.9v12.46h12.6v0.98l-5.04,3.08v88.2h12.46V151.761h1.82l13.02,82.739h16.1l12.6-82.739h1.82V244.02Zm61.46,0.14V232.54h-11.34V150.781h9.8v-11.62h-32.76v11.62h15.54v0.98l-5.32,3.22V232.54h-11.34v11.62h35.42Zm51.24-74.06h12.74V154.281l-15.26-15.96h-19.88l-15.26,15.96V227.92l15.12,16.94h20.02l15.26-16.94V211.4l-12.74.14v11.62l-8.12,8.96h-8.82l-7.98-8.96V159.321l7.84-8.26h9.1l7.98,8.26V170.1Zm42.28,39.34h-12.6v19.18l15.4,16.24h20.02l15.4-16.24V200.34l-37.52-26.32V159.461l7.7-8.26h8.82l7.84,8.26V170.38h12.6v-16.1l-14.98-15.68h-19.6l-14.98,15.68V180.6l37.66,26.32v16.66l-8.26,8.68h-9.24l-8.26-8.68V209.44Z" transform="translate(-168.625 -137.406)"/>
</svg>
