<svg 
 xmlns="http://www.w3.org/2000/svg"
 xmlns:xlink="http://www.w3.org/1999/xlink"
 width="596px" height="114px">
<path fill-rule="evenodd"  stroke-width="1px" stroke="rgb(51, 51, 51)" fill-opacity="0" fill="rgb(255, 255, 255)"
 d="M591.627,109.660 L577.627,109.660 L561.247,74.380 L550.187,74.380 L550.187,109.660 L537.448,109.660 L537.448,21.880 L542.768,18.660 L542.768,17.680 L529.748,17.680 L529.748,4.800 L568.247,4.800 L584.347,21.40 L584.347,57.300 L573.7,69.480 L591.627,109.660 ZM571.607,26.220 L563.67,17.680 L550.187,17.680 L550.187,61.640 L562.927,61.640 L571.607,52.260 L571.607,26.220 ZM473.608,21.740 L478.928,18.520 L478.928,17.540 L466.188,17.540 L466.188,4.800 L516.587,4.800 L516.587,29.580 L503.847,29.580 L503.847,17.540 L486.348,17.540 L486.348,51.420 L510.7,51.420 L510.7,64.160 L486.348,64.160 L486.348,96.920 L505.107,96.920 L505.107,86.140 L517.847,86.140 L517.847,109.660 L473.608,109.660 L473.608,21.740 ZM447.707,16.140 L436.87,16.140 L436.87,109.660 L423.348,109.660 L423.348,16.140 L412.8,16.140 L411.448,27.200 L401.88,27.200 L401.88,4.660 L458.627,4.660 L458.627,27.200 L448.127,27.200 L447.707,16.140 ZM354.188,110.360 L339.68,93.420 L339.68,19.780 L354.328,3.820 L374.207,3.820 L389.467,19.780 L389.467,35.600 L376.727,35.600 L376.727,24.820 L368.747,16.560 L359.648,16.560 L351.808,24.820 L351.808,88.660 L359.787,97.620 L368.607,97.620 L376.727,88.660 L376.727,77.40 L389.467,76.900 L389.467,93.420 L374.207,110.360 L354.188,110.360 ZM307.987,82.360 L286.148,82.360 L282.88,109.660 L269.208,109.660 L282.88,21.740 L287.408,18.520 L287.408,17.540 L276.488,17.540 L276.488,4.800 L309.387,4.800 L324.927,109.660 L312.47,109.660 L307.987,82.360 ZM298.328,17.540 L295.667,17.540 L287.968,69.620 L306.167,69.620 L298.328,17.540 ZM248.487,109.660 L232.107,74.380 L221.48,74.380 L221.48,109.660 L208.308,109.660 L208.308,21.880 L213.628,18.660 L213.628,17.680 L200.608,17.680 L200.608,4.800 L239.107,4.800 L255.207,21.40 L255.207,57.300 L243.867,69.480 L262.487,109.660 L248.487,109.660 ZM242.467,26.220 L233.927,17.680 L221.48,17.680 L221.48,61.640 L233.787,61.640 L242.467,52.260 L242.467,26.220 ZM175.967,82.360 L154.128,82.360 L150.68,109.660 L137.188,109.660 L150.68,21.740 L155.388,18.520 L155.388,17.540 L144.468,17.540 L144.468,4.800 L177.367,4.800 L192.907,109.660 L180.27,109.660 L175.967,82.360 ZM166.307,17.540 L163.647,17.540 L155.948,69.620 L174.147,69.620 L166.307,17.540 ZM110.307,63.460 L86.648,63.460 L86.648,109.660 L73.908,109.660 L73.908,21.880 L79.88,18.800 L79.88,17.820 L66.488,17.820 L66.488,5.80 L86.648,5.80 L86.648,51.280 L110.307,51.280 L110.307,5.80 L123.47,5.80 L123.47,109.660 L110.307,109.660 L110.307,63.460 ZM18.748,110.360 L3.628,93.420 L3.628,19.780 L18.888,3.820 L38.767,3.820 L54.27,19.780 L54.27,35.600 L41.287,35.600 L41.287,24.820 L33.307,16.560 L24.207,16.560 L16.368,24.820 L16.368,88.660 L24.347,97.620 L33.167,97.620 L41.287,88.660 L41.287,77.40 L54.27,76.900 L54.27,93.420 L38.767,110.360 L18.748,110.360 Z"/>
</svg>