<svg xmlns="http://www.w3.org/2000/svg" width="252.594" height="107.531" viewBox="0 0 252.594 107.531">
  <defs>
    <style>
      .cls-1 {
        fill: #fff;
        fill-opacity: 0;
        stroke: #333;
        stroke-linejoin: round;
        stroke-width: 1px;
        fill-rule: evenodd;
      }
    </style>
  </defs>
  <path id="bg_cast.svg" class="cls-1" d="M506.768,788.112h12.74v-15.82l-15.26-15.96h-19.88l-15.259,15.96v73.64l15.119,16.94h20.02l15.26-16.94v-16.52l-12.74.14v11.62l-8.12,8.96h-8.82l-7.98-8.96v-63.84l7.84-8.26h9.1l7.98,8.26v10.78Zm62.72,34.02h-18.2l7.7-52.08h2.66Zm-29.679-52.08h10.919v0.98l-5.319,3.22-12.88,87.92h12.88l4.059-27.3h21.84l4.06,27.3h12.88l-15.54-104.86h-32.9v12.74Zm73.64,57.4h-12.6v19.18l15.4,16.24h20.02l15.4-16.24v-28.28l-37.52-26.32v-14.56l7.7-8.26h8.82l7.84,8.26v10.92h12.6v-16.1l-14.98-15.68h-19.6l-14.979,15.68v26.32l37.659,26.32v16.66l-8.26,8.68h-9.24l-8.259-8.68v-14.14Zm71.959,34.72h12.74v-93.52h11.62l0.42,11.06h10.5v-22.54H663.149v22.54h10.36l0.56-11.06h11.339v93.52Z" transform="translate(-468.594 -755.844)"/>
</svg>
