<svg xmlns="http://www.w3.org/2000/svg" width="504.593" height="107.969" viewBox="0 0 504.593 107.969">
  <defs>
    <style>
      .cls-1 {
        fill: #fff;
        fill-opacity: 0;
        stroke: #333;
        stroke-linejoin: round;
        stroke-width: 1px;
        fill-rule: evenodd;
      }
    </style>
  </defs>
  <path id="bg_episodes.svg" class="cls-1" d="M130.128,185.92V152.041h17.5v12.04h12.74V139.3h-50.4v12.74h12.74v0.98l-5.32,3.22V244.16h44.24V220.64h-12.74v10.78h-18.76V198.66h23.66V185.92h-23.66Zm63.84,11.06V152.041h14.98l8.54,8.54V187.74l-8.68,9.24h-14.84Zm20.16-57.679h-40.46v12.32h12.88v0.98l-5.32,3.22V244.16h12.74V209.72h20.3l16.1-16.94V155.261Zm63.98,104.859V232.54h-11.34V150.781h9.8v-11.62h-32.76v11.62h15.54v0.98l-5.32,3.22V232.54h-11.34v11.62h35.42Zm24.64-34.72h-12.6v19.18l15.4,16.24h20.02l15.4-16.24V200.34l-37.52-26.32V159.461l7.7-8.26h8.82l7.84,8.26V170.38h12.6v-16.1l-14.98-15.68h-19.6l-14.98,15.68V180.6l37.66,26.32v16.66l-8.26,8.68h-9.24l-8.26-8.68V209.44Zm108.22-55.719-15.82-15.82h-20.02l-15.82,15.82V227.78l15.68,16.8h20.16l15.82-16.8V153.721Zm-21.28,78.259h-9.24l-8.54-9.1V158.9l8.4-8.4h9.52l8.4,8.4V222.88Zm54.88-.56v-79.1h15.4l8.26,8.12V223.16l-8.26,8.26h-15.4Zm-7.42-79.1v0.98l-5.32,3.22V244.16h33.46l15.68-15.82V155.261l-15.68-15.68h-41.02v12.74h12.88Zm77.28,33.6V152.041h17.5v12.04h12.74V139.3h-50.4v12.74h12.74v0.98l-5.32,3.22V244.16h44.24V220.64h-12.74v10.78h-18.76V198.66h23.66V185.92h-23.66Zm60.9,23.52h-12.6v19.18l15.4,16.24h20.02l15.4-16.24V200.34l-37.52-26.32V159.461l7.7-8.26h8.82l7.84,8.26V170.38h12.6v-16.1l-14.98-15.68h-19.6l-14.98,15.68V180.6l37.66,26.32v16.66l-8.26,8.68h-9.24l-8.26-8.68V209.44Z" transform="translate(-109.469 -137.406)"/>
</svg>
