<svg xmlns="http://www.w3.org/2000/svg" width="334.594" height="107.969" viewBox="0 0 334.594 107.969">
  <defs>
    <style>
      .cls-1 {
        fill: #fff;
        fill-opacity: 0;
        stroke: #333;
        stroke-linejoin: round;
        stroke-width: 1px;
        fill-rule: evenodd;
      }
    </style>
  </defs>
  <path id="bg_goods.svg" class="cls-1" d="M239.888,174.16h12.74V155.121l-15.54-15.54h-21.28l-15.54,15.54V227.78l15.4,16.38h21.56l15.4-16.38v-40.6h-26.18v12.6h13.44v22.96l-8.54,9.24h-9.8l-8.54-9.24V160.3l8.4-8.54h10.08l8.4,8.54V174.16Zm84-20.439-15.82-15.82h-20.02l-15.82,15.82V227.78l15.68,16.8h20.16l15.82-16.8V153.721Zm-21.28,78.259h-9.24l-8.54-9.1V158.9l8.4-8.4h9.52l8.4,8.4V222.88Zm92.54-78.259-15.82-15.82h-20.02l-15.82,15.82V227.78l15.68,16.8h20.16l15.82-16.8V153.721Zm-21.28,78.259h-9.24l-8.54-9.1V158.9l8.4-8.4h9.52l8.4,8.4V222.88Zm54.88-.56v-79.1h15.4l8.26,8.12V223.16l-8.26,8.26h-15.4Zm-7.42-79.1v0.98l-5.32,3.22V244.16h33.46l15.68-15.82V155.261l-15.68-15.68h-41.02v12.74h12.88Zm74.34,57.119h-12.6v19.18l15.4,16.24h20.02l15.4-16.24V200.34l-37.52-26.32V159.461l7.7-8.26h8.82l7.84,8.26V170.38h12.6v-16.1l-14.98-15.68h-19.6l-14.98,15.68V180.6l37.66,26.32v16.66l-8.26,8.68h-9.24l-8.26-8.68V209.44Z" transform="translate(-199.781 -137.406)"/>
</svg>
