<svg xmlns="http://www.w3.org/2000/svg" width="765.25" height="107.969" viewBox="0 0 765.25 107.969">
  <defs>
    <style>
      .cls-1 {
        fill: #fff;
        fill-opacity: 0;
        stroke: #333;
        stroke-linejoin: round;
        stroke-width: 1px;
        fill-rule: evenodd;
      }
    </style>
  </defs>
  <path id="p-intro_bg.svg" class="cls-1" d="M232.668,369.16V357.54h-11.34V275.781h9.8v-11.62h-32.76v11.62h15.54v0.98l-5.32,3.22V357.54h-11.34v11.62h35.42Zm7.42-91.979h12.88v0.98l-5.32,3.22V369.16h12.46v-50.4l-1.68-35.419h0.42l9.52,34.3,16.38,51.52h13.58V264.581h-12.46V301.4l2.8,44.52h-0.42l-11.48-43.82-11.9-37.519h-24.78v12.6Zm93.24,91.979h12.74V275.641h11.62l0.42,11.06h10.5v-22.54h-57.54V286.7h10.36l0.56-11.06h11.34V369.16Zm63-91.979h12.88l8.54,8.54V311.76l-8.68,9.38h-12.74V277.181Zm0,56.7h11.06l16.38,35.28h14l-18.62-40.18,11.34-12.18V280.541l-16.1-16.24h-38.5v12.88h13.02v0.98l-5.32,3.22V369.16h12.74V333.88Zm105.28-55.159-15.82-15.82h-20.02l-15.82,15.82V352.78l15.68,16.8h20.16l15.82-16.8V278.721Zm-21.28,78.259h-9.24l-8.54-9.1V283.9l8.4-8.4h9.52l8.4,8.4V347.88Zm54.88-.56v-79.1h15.4l8.26,8.12V348.16l-8.26,8.26h-15.4Zm-7.42-79.1v0.98l-5.32,3.22V369.16h33.46l15.68-15.82V280.261l-15.68-15.68h-41.02v12.74h12.88Zm57.12-13.16v11.62h12.88v0.98l-5.32,3.22V352.92l15.12,16.8h19.74l14.98-16.8V264.161h-12.74v84l-7.98,8.82h-8.4l-7.98-8.82v-84h-20.3ZM699.428,295.1h12.74V279.281l-15.26-15.96h-19.88l-15.26,15.96V352.92l15.12,16.94h20.02l15.26-16.94V336.4l-12.74.14v11.62l-8.12,8.96h-8.82l-7.98-8.96V284.321l7.84-8.26h9.1l7.98,8.26V295.1Zm46.62,74.06h12.74V275.641h11.62l0.42,11.06h10.5v-22.54h-57.54V286.7h10.36l0.56-11.06h11.34V369.16Zm78.54,0V357.54h-11.34V275.781h9.8v-11.62h-32.76v11.62h15.54v0.98l-5.32,3.22V357.54h-11.34v11.62h35.42Zm65.24-90.439-15.82-15.82h-20.02l-15.82,15.82V352.78l15.68,16.8h20.16l15.82-16.8V278.721Zm-21.28,78.259h-9.24l-8.54-9.1V283.9l8.4-8.4h9.52l8.4,8.4V347.88Zm34.72-79.8h12.88v0.98l-5.32,3.22V369.16h12.46v-50.4l-1.68-35.419h0.42l9.52,34.3,16.38,51.52h13.58V264.581h-12.46V301.4l2.8,44.52h-0.42l-11.48-43.82-11.9-37.519h-24.78v12.6Z" transform="translate(-196.75 -262.406)"/>
</svg>
