<svg xmlns="http://www.w3.org/2000/svg" width="327.5" height="107.813" viewBox="0 0 327.5 107.813">
  <defs>
    <style>
      .cls-1 {
        fill: #fff;
        fill-opacity: 0;
        stroke: #333;
        stroke-linejoin: round;
        stroke-width: 1px;
        fill-rule: evenodd;
      }
    </style>
  </defs>
  <path id="bg_movie.svg" class="cls-1" d="M269.208,244.02h12.46V139.3h-25.34l-6.02,41.579-3.5,36.54h-0.42l-3.64-37.1-6.02-41.019h-32.9v12.46h12.6v0.98l-5.04,3.08v88.2h12.46V151.761h1.82l13.02,82.739h16.1l12.6-82.739h1.82V244.02Zm83.58-90.3-15.82-15.82h-20.02l-15.82,15.82V227.78l15.68,16.8h20.16l15.82-16.8V153.721Zm-21.28,78.259h-9.24l-8.54-9.1V158.9l8.4-8.4h9.52l8.4,8.4V222.88Zm96.32-92.819h-12.88l-14,93.379h-2.94l-13.72-93.379h-18.76v12.18h13.02v0.84l-4.76,3.22,13.16,89.319h24.92Zm43.4,105V232.54h-11.34V150.781h9.8v-11.62h-32.76v11.62h15.54v0.98l-5.32,3.22V232.54h-11.34v11.62h35.42Zm27.58-58.24V152.041h17.5v12.04h12.74V139.3h-50.4v12.74h12.74v0.98l-5.32,3.22V244.16h44.24V220.64h-12.74v10.78h-18.76V198.66h23.66V185.92h-23.66Z" transform="translate(-203.312 -137.406)"/>
</svg>
