<svg xmlns="http://www.w3.org/2000/svg" width="330.157" height="107.563" viewBox="0 0 330.157 107.563">
  <defs>
    <style>
      .cls-1 {
        fill: #fff;
        fill-opacity: 0;
        stroke: #333;
        stroke-linejoin: round;
        stroke-width: 1px;
        fill-rule: evenodd;
      }
    </style>
  </defs>
  <path id="bg_music.svg" class="cls-1" d="M268.208,244.02h12.46V139.3h-25.34l-6.02,41.579-3.5,36.54h-0.42l-3.64-37.1-6.02-41.019h-32.9v12.46h12.6v0.98l-5.04,3.08v88.2h12.46V151.761h1.82l13.02,82.739h16.1l12.6-82.739h1.82V244.02Zm25.76-104.859v11.62h12.88v0.98l-5.32,3.22V227.92l15.12,16.8h19.74l14.98-16.8V139.161h-12.74v84l-7.98,8.82h-8.4l-7.98-8.82v-84h-20.3Zm87.92,70.279h-12.6v19.18l15.4,16.24h20.02l15.4-16.24V200.34l-37.52-26.32V159.461l7.7-8.26h8.82l7.84,8.26V170.38h12.6v-16.1l-14.98-15.68h-19.6l-14.98,15.68V180.6l37.66,26.32v16.66l-8.26,8.68h-9.24l-8.26-8.68V209.44Zm86.1,34.72V232.54h-11.34V150.781h9.8v-11.62h-32.76v11.62h15.54v0.98l-5.32,3.22V232.54h-11.34v11.62h35.42Zm51.24-74.06h12.74V154.281l-15.26-15.96h-19.88l-15.26,15.96V227.92l15.12,16.94h20.02l15.26-16.94V211.4l-12.74.14v11.62l-8.12,8.96h-8.82l-7.98-8.96V159.321l7.84-8.26h9.1l7.98,8.26V170.1Z" transform="translate(-202.312 -137.812)"/>
</svg>
