<svg 
 xmlns="http://www.w3.org/2000/svg"
 xmlns:xlink="http://www.w3.org/1999/xlink"
 width="297px" height="114px">
<path fill-rule="evenodd"  stroke-width="1px" stroke="rgb(51, 51, 51)" fill-opacity="0" fill="rgb(255, 255, 255)"
 d="M293.7,65.840 L293.7,94.120 L277.607,110.360 L257.588,110.360 L242.188,94.120 L242.188,74.940 L254.788,74.940 L254.788,89.80 L263.48,97.760 L272.287,97.760 L280.547,89.80 L280.547,72.420 L242.888,46.100 L242.888,19.780 L257.868,4.100 L277.467,4.100 L292.447,19.780 L292.447,35.880 L279.847,35.880 L279.847,24.960 L272.7,16.700 L263.187,16.700 L255.488,24.960 L255.488,39.520 L293.7,65.840 ZM196.687,110.220 L192.907,87.120 L187.447,39.100 L186.887,39.100 L181.427,86.840 L177.647,110.220 L154.828,110.220 L146.848,20.760 L151.608,17.820 L151.608,16.840 L138.868,16.840 L138.868,4.800 L158.328,4.800 L165.748,98.600 L167.147,98.600 L179.887,14.880 L194.307,14.880 L207.47,98.600 L208.307,98.600 L215.727,4.800 L228.747,4.800 L218.947,110.220 L196.687,110.220 ZM83.568,21.740 L88.888,18.520 L88.888,17.540 L76.148,17.540 L76.148,4.800 L126.547,4.800 L126.547,29.580 L113.807,29.580 L113.807,17.540 L96.308,17.540 L96.308,51.420 L119.967,51.420 L119.967,64.160 L96.308,64.160 L96.308,96.920 L115.67,96.920 L115.67,86.140 L127.807,86.140 L127.807,109.660 L83.568,109.660 L83.568,21.740 ZM32.747,58.140 L23.228,23.840 L22.808,23.840 L24.488,59.260 L24.488,109.660 L12.28,109.660 L12.28,21.880 L17.348,18.660 L17.348,17.680 L4.468,17.680 L4.468,5.80 L29.248,5.80 L41.147,42.600 L52.627,86.420 L53.47,86.420 L50.247,41.900 L50.247,5.80 L62.707,5.80 L62.707,109.660 L49.127,109.660 L32.747,58.140 Z"/>
</svg>