<?xml version="1.0" encoding="utf-8"?>
<!-- Generator: Adobe Illustrator 26.5.0, SVG Export Plug-In . SVG Version: 6.00 Build 0)  -->
<svg version="1.1" id="レイヤー_1" xmlns="http://www.w3.org/2000/svg" xmlns:xlink="http://www.w3.org/1999/xlink" x="0px"
	 y="0px" viewBox="0 0 332.41 107.69" style="enable-background:new 0 0 332.41 107.69;" xml:space="preserve">
<style type="text/css">
	.st0{fill-rule:evenodd;clip-rule:evenodd;fill:#FFFFFF;fill-opacity:0;stroke:#333333;stroke-linejoin:round;}
</style>
<path id="bg_onair.svg" class="st0" d="M52.17,16.33L36.35,0.51H16.33L0.52,16.33v74.06l15.68,16.8h20.16l15.82-16.8V16.33
	L52.17,16.33z M30.89,94.59h-9.24l-8.54-9.1V21.51l8.4-8.4h9.52l8.4,8.4v63.98L30.89,94.59z M65.61,14.79h12.88v0.98l-5.32,3.22
	v87.78h12.46v-50.4l-1.68-35.42h0.42l9.52,34.3l16.38,51.52h13.58V2.19h-12.46v36.82l2.8,44.52h-0.42l-11.48-43.82L90.39,2.19H65.61
	V14.79z M200.43,66.73h-18.2l7.7-52.08h2.66L200.43,66.73z M170.75,14.65h10.92v0.98l-5.32,3.22l-12.88,87.92h12.88l4.06-27.3h21.84
	l4.06,27.3h12.88L203.65,1.91h-32.9L170.75,14.65L170.75,14.65z M262.87,106.77V95.15h-11.34V13.39h9.8V1.77h-32.76v11.62h15.54
	v0.98l-5.32,3.22v77.56h-11.34v11.62H262.87z M290.45,14.79h12.88l8.54,8.54v26.04l-8.68,9.38h-12.74V14.79z M290.45,71.49h11.06
	l16.38,35.28h14l-18.62-40.18l11.34-12.18V18.15l-16.1-16.24h-38.5v12.88h13.02v0.98l-5.32,3.22v87.78h12.74L290.45,71.49
	L290.45,71.49z"/>
</svg>
