<svg xmlns="http://www.w3.org/2000/svg" width="302.844" height="107.25" viewBox="0 0 302.844 107.25">
  <defs>
    <style>
      .cls-1 {
        fill: #fff;
        fill-opacity: 0;
        stroke: #333;
        stroke-linejoin: round;
        stroke-width: 1px;
        fill-rule: evenodd;
      }
    </style>
  </defs>
  <path id="bg_staff.svg" class="cls-1" d="M454.169,429.452h-12.6v19.18l15.4,16.24h20.02l15.4-16.24v-28.28l-37.52-26.32v-14.56l7.7-8.26h8.82l7.84,8.26v10.92h12.6v-16.1l-14.98-15.68h-19.6l-14.979,15.68v26.32l37.659,26.32v16.66l-8.26,8.68h-9.24l-8.259-8.68v-14.14Zm71.959,34.72h12.74v-93.52h11.62l0.42,11.06h10.5v-22.54H503.869v22.54h10.36l0.56-11.06h11.339v93.52Zm80.5-40.04h-18.2l7.7-52.08h2.66Zm-29.679-52.08h10.919v0.98l-5.319,3.22-12.88,87.92h12.88l4.06-27.3h21.839l4.06,27.3h12.88l-15.54-104.86h-32.9v12.74Zm76.58,36.4v-36.12h17.639v12.04h12.46v-24.64H633.369v12.6h12.74v0.98l-5.32,3.22v87.64h12.74v-42.98h23.519v-12.74H653.529Zm59.78,0v-36.12h17.639v12.04h12.46v-24.64H693.149v12.6h12.74v0.98l-5.32,3.22v87.64h12.74v-42.98h23.519v-12.74H713.309Z" transform="translate(-441.062 -358.125)"/>
</svg>
