<svg 
 xmlns="http://www.w3.org/2000/svg"
 xmlns:xlink="http://www.w3.org/1999/xlink"
 width="603px" height="114px">
<path fill-rule="evenodd"  stroke-width="1px" stroke="rgb(51, 51, 51)" fill-opacity="0" fill="rgb(255, 255, 255)"
 d="M588.167,27.200 L587.747,16.140 L576.127,16.140 L576.127,109.660 L563.388,109.660 L563.388,16.140 L552.48,16.140 L551.488,27.200 L541.128,27.200 L541.128,4.660 L598.667,4.660 L598.667,27.200 L588.167,27.200 ZM494.228,110.360 L478.828,94.120 L478.828,74.940 L491.428,74.940 L491.428,89.80 L499.687,97.760 L508.927,97.760 L517.187,89.80 L517.187,72.420 L479.528,46.100 L479.528,19.780 L494.507,4.100 L514.107,4.100 L529.87,19.780 L529.87,35.880 L516.487,35.880 L516.487,24.960 L508.647,16.700 L499.828,16.700 L492.128,24.960 L492.128,39.520 L529.647,65.840 L529.647,94.120 L514.247,110.360 L494.228,110.360 ZM449.287,82.360 L427.448,82.360 L423.388,109.660 L410.508,109.660 L423.388,21.740 L428.708,18.520 L428.708,17.540 L417.788,17.540 L417.788,4.800 L450.687,4.800 L466.227,109.660 L453.347,109.660 L449.287,82.360 ZM439.627,17.540 L436.967,17.540 L429.268,69.620 L447.467,69.620 L439.627,17.540 ZM362.208,110.360 L347.88,93.420 L347.88,19.780 L362.348,3.820 L382.227,3.820 L397.487,19.780 L397.487,35.600 L384.747,35.600 L384.747,24.820 L376.767,16.560 L367.667,16.560 L359.828,24.820 L359.828,88.660 L367.807,97.620 L376.627,97.620 L384.747,88.660 L384.747,77.40 L397.487,76.900 L397.487,93.420 L382.227,110.360 L362.208,110.360 ZM293.467,17.820 L275.828,17.820 L275.828,53.940 L299.347,53.940 L299.347,66.680 L275.828,66.680 L275.828,109.660 L263.88,109.660 L263.88,22.20 L268.408,18.800 L268.408,17.820 L255.668,17.820 L255.668,5.220 L305.927,5.220 L305.927,29.860 L293.467,29.860 L293.467,17.820 ZM233.687,17.820 L216.48,17.820 L216.48,53.940 L239.567,53.940 L239.567,66.680 L216.48,66.680 L216.48,109.660 L203.308,109.660 L203.308,22.20 L208.628,18.800 L208.628,17.820 L195.888,17.820 L195.888,5.220 L246.147,5.220 L246.147,29.860 L233.687,29.860 L233.687,17.820 ZM170.967,82.360 L149.128,82.360 L145.68,109.660 L132.188,109.660 L145.68,21.740 L150.388,18.520 L150.388,17.540 L139.468,17.540 L139.468,4.800 L172.367,4.800 L187.907,109.660 L175.27,109.660 L170.967,82.360 ZM161.307,17.540 L158.647,17.540 L150.948,69.620 L169.147,69.620 L161.307,17.540 ZM113.7,16.140 L101.387,16.140 L101.387,109.660 L88.648,109.660 L88.648,16.140 L77.308,16.140 L76.748,27.200 L66.388,27.200 L66.388,4.660 L123.927,4.660 L123.927,27.200 L113.427,27.200 L113.7,16.140 ZM19.488,110.360 L4.88,94.120 L4.88,74.940 L16.688,74.940 L16.688,89.80 L24.947,97.760 L34.187,97.760 L42.447,89.80 L42.447,72.420 L4.788,46.100 L4.788,19.780 L19.768,4.100 L39.367,4.100 L54.347,19.780 L54.347,35.880 L41.747,35.880 L41.747,24.960 L33.907,16.700 L25.87,16.700 L17.388,24.960 L17.388,39.520 L54.907,65.840 L54.907,94.120 L39.507,110.360 L19.488,110.360 Z"/>
</svg>