<?xml version="1.0" encoding="utf-8"?>
<!-- Generator: Adobe Illustrator 26.5.0, SVG Export Plug-In . SVG Version: 6.00 Build 0)  -->
<svg version="1.1" id="レイヤー_1" xmlns="http://www.w3.org/2000/svg" xmlns:xlink="http://www.w3.org/1999/xlink" x="0px"
	 y="0px" viewBox="0 0 86.31 18.34" style="enable-background:new 0 0 86.31 18.34;" xml:space="preserve">
<style type="text/css">
	.st0{fill-rule:evenodd;clip-rule:evenodd;fill:#FFFFFF;}
</style>
<path id="nav_episodes.svg" class="st0" d="M3.45,8.24V2.43h3v2.06h2.19V0.24H0v2.18h2.18V2.6L1.27,3.15v15.07h7.58v-4.03H6.67v1.85
	H3.45v-5.62h4.06V8.24H3.45z M14.4,10.14v-7.7h2.57l1.46,1.46v4.66l-1.49,1.58L14.4,10.14L14.4,10.14z M17.85,0.25h-6.94v2.11h2.21
	v0.16l-0.91,0.55v15.15h2.18v-5.9h3.48l2.76-2.9V2.98L17.85,0.25z M28.82,18.23v-2h-1.94V2.21h1.68V0.22h-5.62v1.99h2.66v0.17
	l-0.91,0.55v13.3h-1.94v1.99L28.82,18.23L28.82,18.23z M33.04,12.27h-2.16v3.29l2.64,2.78h3.43l2.64-2.78v-4.85L33.16,6.2V3.7
	l1.32-1.42H36l1.34,1.42v1.88h2.16V2.81l-2.57-2.69h-3.36L31,2.81v4.51l6.46,4.51v2.86l-1.42,1.49h-1.58l-1.42-1.49L33.04,12.27
	L33.04,12.27z M51.6,2.72l-2.71-2.71h-3.43l-2.71,2.71v12.7l2.69,2.88h3.46l2.71-2.88L51.6,2.72L51.6,2.72z M47.95,16.14h-1.58
	l-1.46-1.56V3.6l1.44-1.44h1.63l1.44,1.44v10.97L47.95,16.14z M57.36,16.04V2.47H60l1.42,1.39v10.76L60,16.04L57.36,16.04
	L57.36,16.04z M56.08,2.47v0.17L55.17,3.2v15.03h5.74l2.69-2.71V2.98l-2.69-2.69h-7.03v2.18H56.08z M69.33,8.24V2.43h3v2.06h2.18
	V0.24h-8.64v2.18h2.18V2.6l-0.91,0.55v15.07h7.58v-4.03h-2.18v1.85h-3.22v-5.62h4.06V8.24L69.33,8.24L69.33,8.24z M79.77,12.27
	h-2.16v3.29l2.64,2.78h3.43l2.64-2.78v-4.85L79.89,6.2V3.7l1.32-1.42h1.51l1.34,1.42v1.88h2.16V2.81l-2.57-2.69H80.3l-2.57,2.69
	v4.51l6.46,4.51v2.86l-1.42,1.49h-1.58l-1.42-1.49L79.77,12.27L79.77,12.27z"/>
</svg>
