<svg xmlns="http://www.w3.org/2000/svg" width="56.063" height="15.281" viewBox="0 0 56.063 15.281">
  <defs>
    <style>
      .cls-1 {
        fill: #fff;
        fill-rule: evenodd;
      }
    </style>
  </defs>
  <path id="nav_comics.svg" class="cls-1" d="M430.252,83.275h1.821v-2.26l-2.181-2.281h-2.841l-2.18,2.281V91.537l2.16,2.421h2.861l2.181-2.421V89.176l-1.821.02v1.66l-1.16,1.28h-1.26l-1.141-1.28V81.735l1.121-1.18h1.3l1.14,1.18v1.54Zm11.841-2.34-2.261-2.261h-2.861l-2.26,2.261V91.517l2.24,2.4h2.881l2.261-2.4V80.935Zm-3.041,11.182h-1.32l-1.221-1.3V81.675l1.2-1.2h1.36l1.2,1.2v9.142Zm14.281,1.72h1.78V78.874h-3.621l-0.86,5.941-0.5,5.221h-0.06l-0.52-5.3-0.86-5.861h-4.7v1.78h1.8v0.14l-0.72.44v12.6h1.78V80.655h0.26l1.861,11.822h2.3l1.8-11.822h0.26V93.837Zm8.779,0.02V92.2h-1.62V80.515h1.4v-1.66h-4.681v1.66h2.22v0.14l-0.76.46V92.2h-1.62v1.66h5.061Zm7.32-10.582h1.821v-2.26l-2.181-2.281h-2.841l-2.18,2.281V91.537l2.16,2.421h2.861l2.181-2.421V89.176l-1.821.02v1.66l-1.16,1.28h-1.26l-1.141-1.28V81.735l1.121-1.18h1.3l1.14,1.18v1.54Zm6.039,5.621h-1.8v2.74l2.2,2.321h2.861l2.2-2.321V87.6l-5.362-3.761V81.755l1.1-1.18h1.26l1.12,1.18v1.56h1.8v-2.3l-2.14-2.241h-2.8l-2.14,2.241v3.761l5.381,3.761v2.38l-1.18,1.24h-1.32l-1.181-1.24V88.9Z" transform="translate(-424.875 -78.688)"/>
</svg>
