<svg xmlns="http://www.w3.org/2000/svg" xmlns:xlink="http://www.w3.org/1999/xlink" width="58px" height="16px">
  <path fill-rule="evenodd" fill="rgb(255, 255, 255)" d="M55.512,15.857 L50.731,15.857 L50.731,3.334 L51.491,2.874 L51.491,2.734 L49.650,2.734 L49.650,0.914 L55.512,0.914 L57.752,3.154 L57.752,13.596 L55.512,15.857 ZM55.932,3.894 L54.751,2.734 L52.551,2.734 L52.551,14.37 L54.751,14.37 L55.932,12.856 L55.932,3.894 ZM42.731,15.937 L40.851,3.174 L41.531,2.714 L41.531,2.594 L39.670,2.594 L39.670,0.854 L42.351,0.854 L44.311,14.197 L44.731,14.197 L46.732,0.854 L48.572,0.854 L46.292,15.937 L42.731,15.937 ZM30.851,15.857 L30.851,3.334 L31.611,2.874 L31.611,2.734 L29.770,2.734 L29.770,0.914 L35.632,0.914 L37.872,3.154 L37.872,13.596 L35.632,15.857 L30.851,15.857 ZM36.52,3.894 L34.871,2.734 L32.671,2.734 L32.671,14.37 L34.871,14.37 L36.52,12.856 L36.52,3.894 ZM27.672,15.857 L22.651,15.857 L20.410,13.616 L20.410,9.616 L22.31,8.135 L20.810,6.815 L20.810,3.154 L22.891,0.894 L25.652,0.894 L27.692,3.154 L27.692,4.795 L25.852,4.795 L25.852,3.914 L24.891,2.754 L23.651,2.754 L22.651,3.914 L22.651,6.95 L23.711,7.355 L28.572,7.355 L28.572,9.195 L27.672,9.195 L27.672,15.857 ZM25.832,9.195 L23.531,9.195 L22.251,10.456 L22.251,12.856 L23.411,14.17 L25.832,14.17 L25.832,9.195 ZM11.31,15.857 L11.31,3.334 L11.791,2.874 L11.791,2.734 L9.950,2.734 L9.950,0.914 L15.812,0.914 L18.52,3.154 L18.52,13.596 L15.812,15.857 L11.31,15.857 ZM16.232,3.894 L15.51,2.734 L12.851,2.734 L12.851,14.37 L15.51,14.37 L16.232,12.856 L16.232,3.894 ZM1.71,15.857 L1.71,3.354 L1.831,2.894 L1.831,2.754 L0.10,2.754 L0.10,0.894 L5.471,0.894 L7.712,3.154 L7.712,6.815 L6.612,8.135 L8.112,9.616 L8.112,13.616 L5.872,15.857 L1.71,15.857 ZM5.872,3.914 L4.711,2.754 L2.911,2.754 L2.911,7.355 L4.811,7.355 L5.872,6.95 L5.872,3.914 ZM6.272,10.456 L4.991,9.195 L2.911,9.195 L2.911,14.17 L5.111,14.17 L6.272,12.856 L6.272,10.456 Z" />
</svg>