<?xml version="1.0" encoding="utf-8"?>
<!-- Generator: Adobe Illustrator 26.5.0, SVG Export Plug-In . SVG Version: 6.00 Build 0)  -->
<svg version="1.1" id="レイヤー_1" xmlns="http://www.w3.org/2000/svg" xmlns:xlink="http://www.w3.org/1999/xlink" x="0px"
	 y="0px" viewBox="0 0 47.34 15.24" style="enable-background:new 0 0 47.34 15.24;" xml:space="preserve">
<style type="text/css">
	.st0{fill-rule:evenodd;clip-rule:evenodd;fill:#FFFFFF;}
</style>
<path id="nav_onair.svg" class="st0" d="M7.38,2.26L5.12,0H2.26L0,2.26v10.58l2.24,2.4h2.88l2.26-2.4V2.26z M4.34,13.44H3.02
	l-1.22-1.3V3L3,1.8h1.36L5.56,3v9.14L4.34,13.44z M9.3,2.04h1.84v0.14l-0.76,0.46v12.54h1.78v-7.2l-0.24-5.06h0.06l1.36,4.9
	l2.34,7.36h1.94V0.24h-1.78V5.5l0.4,6.36h-0.06L14.54,5.6l-1.7-5.36H9.3L9.3,2.04L9.3,2.04z M28.56,9.46h-2.6l1.1-7.44h0.38
	L28.56,9.46z M24.32,2.02h1.56v0.14l-0.76,0.46l-1.84,12.56h1.84l0.58-3.9h3.12l0.58,3.9h1.84L29.02,0.2h-4.7L24.32,2.02L24.32,2.02
	z M37.48,15.19v-1.66h-1.62V1.84h1.4V0.18h-4.68v1.66h2.22v0.14l-0.76,0.46v11.08h-1.62v1.66L37.48,15.19L37.48,15.19z M41.42,2.04
	h1.84l1.22,1.22v3.72l-1.24,1.34h-1.82V2.04L41.42,2.04z M41.42,10.14H43l2.34,5.04h2l-2.66-5.74L46.3,7.7V2.52L44,0.2h-5.5v1.84
	h1.86v0.14L39.6,2.64v12.54h1.82V10.14L41.42,10.14z"/>
</svg>
