<svg xmlns="http://www.w3.org/2000/svg" width="27.532" height="15.219" viewBox="0 0 27.532 15.219">
  <defs>
    <style>
      .cls-1 {
        fill: #fff;
        fill-rule: evenodd;
      }
    </style>
  </defs>
  <path id="TOP.svg" class="cls-1" d="M610.071,93.857h1.821V80.495h1.66l0.06,1.58h1.5V78.854h-8.222v3.221h1.48l0.08-1.58h1.62V93.857Zm14.382-12.923-2.261-2.261h-2.861l-2.26,2.261V91.517l2.24,2.4h2.881l2.261-2.4V80.935Zm-3.041,11.182h-1.32l-1.221-1.3V81.675l1.2-1.2h1.36l1.2,1.2v9.142Zm7.839-5V80.695h2.141l1.22,1.22V85.8l-1.24,1.32h-2.121Zm2.881-8.242h-5.781v1.76h1.84v0.14l-0.76.46V93.857h1.82V88.936h2.9l2.3-2.421V81.155Z" transform="translate(-606.906 -78.688)"/>
</svg>
