<svg xmlns="http://www.w3.org/2000/svg" width="109.188" height="15.281" viewBox="0 0 109.188 15.281">
  <defs>
    <style>
      .cls-1 {
        fill: #fff;
        fill-rule: evenodd;
      }
    </style>
  </defs>
  <path id="INTRODUCTION.svg" class="cls-1" d="M500.092,58.857V57.2h-1.62V45.515h1.4v-1.66h-4.681v1.66h2.22v0.14l-0.76.46V57.2h-1.62v1.66h5.061Zm1.059-13.143h1.84v0.14l-0.76.46V58.857h1.78v-7.2l-0.24-5.061h0.06l1.361,4.9,2.34,7.362h1.941V43.914h-1.781v5.261l0.4,6.361h-0.06l-1.64-6.261-1.7-5.361h-3.541v1.8Zm13.32,13.143h1.821V45.495h1.66l0.06,1.58h1.5V43.854h-8.222v3.221h1.48l0.08-1.58h1.62V58.857Zm9-13.143h1.841l1.22,1.22v3.721L525.292,52h-1.821V45.715Zm0,8.1h1.581l2.34,5.041h2l-2.661-5.741,1.62-1.74V46.195l-2.3-2.32h-5.5v1.84h1.86v0.14l-0.76.46V58.857h1.82V53.816Zm15.042-7.882-2.261-2.261h-2.861l-2.26,2.261V56.517l2.24,2.4h2.881l2.261-2.4V45.935Zm-3.041,11.182h-1.32l-1.221-1.3V46.675l1.2-1.2h1.36l1.2,1.2v9.142Zm7.839-.08v-11.3h2.2l1.18,1.16v8.962l-1.18,1.18h-2.2Zm-1.06-11.3v0.14l-0.76.46V58.857h4.781l2.241-2.261V46.155l-2.241-2.24h-5.861v1.82h1.84Zm8.16-1.88v1.66h1.84v0.14l-0.76.46V56.537l2.161,2.4h2.82l2.141-2.4V43.854h-1.821v12l-1.14,1.26h-1.2l-1.141-1.26v-12h-2.9Zm16.361,4.421h1.821V46.015l-2.181-2.28h-2.841l-2.18,2.28V56.537l2.16,2.42h2.861l2.181-2.42V54.176l-1.821.02v1.66l-1.16,1.28h-1.26l-1.141-1.28V46.735l1.121-1.18h1.3l1.14,1.18v1.54Zm6.659,10.582h1.821V45.495h1.66l0.06,1.58h1.5V43.854h-8.222v3.221h1.48l0.08-1.58h1.62V58.857Zm11.221,0V57.2h-1.62V45.515h1.4v-1.66h-4.681v1.66h2.22v0.14l-0.76.46V57.2h-1.62v1.66h5.061Zm9.321-12.923-2.261-2.261h-2.861l-2.26,2.261V56.517l2.24,2.4h2.881l2.261-2.4V45.935Zm-3.041,11.182h-1.32l-1.221-1.3V46.675l1.2-1.2h1.36l1.2,1.2v9.142Zm4.959-11.4h1.84v0.14l-0.76.46V58.857h1.78v-7.2l-0.24-5.061h0.06l1.361,4.9,2.34,7.362h1.941V43.914h-1.781v5.261l0.4,6.361h-0.06l-1.64-6.261-1.7-5.361h-3.541v1.8Z" transform="translate(-495.031 -43.688)"/>
</svg>
