<svg xmlns="http://www.w3.org/2000/svg" width="47.65" height="15.281" viewBox="0 0 47.65 15.281">
  <defs>
    <style>
      .cls-1 {
        fill: #fff;
        fill-rule: evenodd;
      }
    </style>
  </defs>
  <path id="GOODS.svg" class="cls-1" d="M1034.55,48.855h1.82V46.135l-2.22-2.221h-3.04l-2.22,2.221V56.517l2.2,2.34h3.08l2.2-2.34v-5.8h-3.74v1.8h1.92V55.8l-1.22,1.32h-1.4l-1.22-1.32V46.875l1.2-1.22h1.44l1.2,1.22v1.98Zm12-2.921-2.26-2.261h-2.86l-2.26,2.261V56.517l2.24,2.4h2.88l2.26-2.4V45.935Zm-3.04,11.182h-1.32l-1.22-1.3V46.675l1.2-1.2h1.36l1.2,1.2v9.142Zm13.22-11.182-2.26-2.261h-2.86l-2.26,2.261V56.517l2.24,2.4h2.88l2.26-2.4V45.935Zm-3.04,11.182h-1.32l-1.22-1.3V46.675l1.2-1.2h1.36l1.2,1.2v9.142Zm7.84-.08v-11.3h2.2l1.18,1.16v8.962l-1.18,1.18h-2.2Zm-1.06-11.3v0.14l-0.76.46V58.857h4.78l2.24-2.261V46.155l-2.24-2.24h-5.86v1.82h1.84Zm10.62,8.162h-1.8v2.74l2.2,2.321h2.86l2.2-2.321V52.6l-5.36-3.761v-2.08l1.1-1.18h1.26l1.12,1.18v1.56h1.8v-2.3l-2.14-2.24h-2.8l-2.14,2.24v3.761l5.38,3.761v2.381l-1.18,1.24h-1.32l-1.18-1.24V53.9Z" transform="translate(-1028.91 -43.688)"/>
</svg>
