<svg xmlns="http://www.w3.org/2000/svg" width="84" height="15.25" viewBox="0 0 84 15.25">
  <defs>
    <style>
      .cls-1 {
        fill: #fff;
        fill-rule: evenodd;
      }
    </style>
  </defs>
  <path id="CHARACTER.svg" class="cls-1" d="M722.252,48.275h1.821V46.015l-2.181-2.28h-2.841l-2.18,2.28V56.537l2.16,2.42h2.861l2.181-2.42V54.176l-1.821.02v1.66l-1.16,1.28h-1.26l-1.141-1.28V46.735l1.121-1.18h1.3l1.14,1.18v1.54Zm3.6-2.541h1.8v0.14l-0.74.44V58.857h1.82v-6.6h3.381v6.6h1.821V43.914h-1.821v6.6h-3.381v-6.6h-2.88v1.82Zm15.381,7.4h-2.6l1.1-7.442h0.38Zm-4.241-7.442h1.56v0.14l-0.76.46-1.84,12.563h1.84l0.58-3.9h3.121l0.58,3.9h1.841l-2.221-14.983h-4.7v1.82Zm10.94,0.02h1.841l1.22,1.22v3.721L749.752,52h-1.821V45.715Zm0,8.1h1.581l2.34,5.041h2l-2.661-5.741,1.62-1.74V46.195l-2.3-2.32h-5.5v1.84h1.86v0.14l-0.76.46V58.857h1.82V53.816Zm12.161-.68h-2.6l1.1-7.442h0.38Zm-4.241-7.442h1.56v0.14l-0.76.46-1.84,12.563h1.84l0.58-3.9h3.121l0.58,3.9h1.841l-2.221-14.983h-4.7v1.82Zm14.321,2.581h1.821V46.015l-2.181-2.28h-2.841l-2.18,2.28V56.537l2.16,2.42h2.861l2.181-2.42V54.176l-1.821.02v1.66l-1.16,1.28h-1.26l-1.141-1.28V46.735l1.121-1.18h1.3l1.14,1.18v1.54Zm6.659,10.582h1.821V45.495h1.66l0.06,1.58h1.5V43.854h-8.222v3.221h1.48l0.08-1.58h1.62V58.857Zm9-8.322V45.695h2.5v1.72h1.82V43.874h-7.2v1.82h1.82v0.14l-0.76.46V58.857h6.321V55.5h-1.82v1.54h-2.681V52.356h3.381v-1.82h-3.381Zm9.12-4.821h1.841l1.22,1.22v3.721L796.772,52h-1.821V45.715Zm0,8.1h1.581l2.34,5.041h2l-2.661-5.741,1.62-1.74V46.195l-2.3-2.32h-5.5v1.84h1.86v0.14l-0.76.46V58.857h1.82V53.816Z" transform="translate(-716.875 -43.719)"/>
</svg>
