<svg xmlns="http://www.w3.org/2000/svg" width="56.438" height="18.281" viewBox="0 0 56.438 18.281">
  <defs>
    <style>
      .cls-1 {
        fill-rule: evenodd;
      }
    </style>
  </defs>
  <path id="nav_music.svg" class="cls-1" d="M357.743,201.824h2.136V183.87h-4.345L354.5,191l-0.6,6.264H353.83l-0.624-6.36-1.032-7.033h-5.64v2.136h2.16v0.168l-0.864.528v15.122h2.136V186.006h0.312l2.232,14.186h2.76l2.161-14.186h0.312v15.818Zm4.415-17.978v1.992h2.208v0.168l-0.912.552v12.5l2.592,2.881h3.384L372,199.063V183.846h-2.184v14.4l-1.368,1.512h-1.44l-1.368-1.512v-14.4h-3.48ZM377.23,195.9h-2.16v3.288l2.64,2.785h3.432l2.64-2.785v-4.848l-6.432-4.512v-2.5l1.32-1.416h1.512l1.344,1.416V189.2h2.16v-2.761l-2.568-2.688h-3.36l-2.568,2.688v4.513l6.456,4.512v2.856l-1.416,1.488h-1.584l-1.416-1.488V195.9Zm14.76,5.953v-1.993h-1.944V185.838h1.68v-1.992H386.11v1.992h2.664v0.168l-0.912.552v13.3h-1.944v1.993h6.072Zm8.784-12.7h2.184v-2.713l-2.616-2.736h-3.408l-2.616,2.736v12.625l2.592,2.905h3.432l2.616-2.905v-2.832l-2.184.024v1.992l-1.392,1.536H397.87l-1.368-1.536V187.3l1.344-1.416h1.56l1.368,1.416v1.849Z" transform="translate(-346.531 -183.688)"/>
</svg>
