<svg 
 xmlns="http://www.w3.org/2000/svg"
 xmlns:xlink="http://www.w3.org/1999/xlink"
 width="125px" height="19px">
<path fill-rule="evenodd"  fill="rgb(0, 0, 0)"
 d="M121.998,18.847 L116.261,18.847 L116.261,3.822 L117.173,3.270 L117.173,3.102 L114.965,3.102 L114.965,0.918 L121.998,0.918 L124.686,3.606 L124.686,16.135 L121.998,18.847 ZM122.502,4.494 L121.86,3.102 L118.445,3.102 L118.445,16.663 L121.86,16.663 L122.502,15.247 L122.502,4.494 ZM106.661,18.943 L104.405,3.630 L105.221,3.78 L105.221,2.934 L102.989,2.934 L102.989,0.846 L106.205,0.846 L108.558,16.855 L109.62,16.855 L111.462,0.846 L113.670,0.846 L110.934,18.943 L106.661,18.943 ZM92.405,18.847 L92.405,3.822 L93.317,3.270 L93.317,3.102 L91.109,3.102 L91.109,0.918 L98.142,0.918 L100.830,3.606 L100.830,16.135 L98.142,18.847 L92.405,18.847 ZM98.646,4.494 L97.230,3.102 L94.589,3.102 L94.589,16.663 L97.230,16.663 L98.646,15.247 L98.646,4.494 ZM88.590,18.847 L82.565,18.847 L79.877,16.159 L79.877,11.359 L81.821,9.582 L80.357,7.998 L80.357,3.606 L82.853,0.894 L86.166,0.894 L88.614,3.606 L88.614,5.574 L86.406,5.574 L86.406,4.518 L85.254,3.126 L83.766,3.126 L82.565,4.518 L82.565,7.134 L83.838,8.646 L89.670,8.646 L89.670,10.854 L88.590,10.854 L88.590,18.847 ZM86.382,10.854 L83.622,10.854 L82.85,12.367 L82.85,15.247 L83.478,16.639 L86.382,16.639 L86.382,10.854 ZM73.902,18.847 L71.718,18.847 L71.718,12.175 L68.573,3.510 L69.341,3.54 L69.341,2.886 L66.965,2.886 L66.965,0.846 L69.941,0.846 L71.333,4.782 L72.750,9.558 L72.894,9.558 L74.358,4.734 L75.726,0.846 L78.30,0.846 L73.902,12.175 L73.902,18.847 ZM63.174,14.167 L59.429,14.167 L58.733,18.847 L56.525,18.847 L58.733,3.774 L59.645,3.222 L59.645,3.54 L57.773,3.54 L57.773,0.870 L63.414,0.870 L66.78,18.847 L63.870,18.847 L63.174,14.167 ZM61.518,3.54 L61.62,3.54 L59.741,11.983 L62.862,11.983 L61.518,3.54 ZM52.974,18.847 L50.166,12.799 L48.269,12.799 L48.269,18.847 L46.85,18.847 L46.85,3.798 L46.997,3.246 L46.997,3.78 L44.765,3.78 L44.765,0.870 L51.366,0.870 L54.126,3.654 L54.126,9.870 L52.182,11.959 L55.374,18.847 L52.974,18.847 ZM51.942,4.542 L50.478,3.78 L48.269,3.78 L48.269,10.614 L50.454,10.614 L51.942,9.6 L51.942,4.542 ZM35.909,9.975 L43.133,9.975 L43.133,12.423 L35.909,12.423 L35.909,9.975 ZM27.245,18.943 L24.653,16.63 L24.653,3.558 L25.565,3.6 L25.565,2.838 L23.357,2.838 L23.357,0.846 L26.837,0.846 L26.837,15.247 L28.206,16.759 L29.646,16.759 L31.14,15.247 L31.14,0.846 L33.198,0.846 L33.198,16.63 L30.630,18.943 L27.245,18.943 ZM13.805,3.774 L14.717,3.222 L14.717,3.54 L12.509,3.54 L12.509,0.870 L15.989,0.870 L15.989,16.759 L19.806,16.759 L19.806,14.839 L21.990,14.839 L21.990,18.847 L13.805,18.847 L13.805,3.774 ZM1.853,18.847 L1.853,3.846 L2.765,3.294 L2.765,3.126 L0.581,3.126 L0.581,0.894 L7.134,0.894 L9.822,3.606 L9.822,7.998 L8.502,9.582 L10.302,11.359 L10.302,16.159 L7.614,18.847 L1.853,18.847 ZM7.614,4.518 L6.222,3.126 L4.61,3.126 L4.61,8.646 L6.342,8.646 L7.614,7.134 L7.614,4.518 ZM8.94,12.367 L6.558,10.854 L4.61,10.854 L4.61,16.639 L6.702,16.639 L8.94,15.247 L8.94,12.367 Z"/>
</svg>