<svg xmlns="http://www.w3.org/2000/svg" width="91.282" height="15.25" viewBox="0 0 91.282 15.25">
  <defs>
    <style>
      .cls-1 {
        fill: #fff;
        fill-rule: evenodd;
      }
    </style>
  </defs>
  <path id="nav_staff.svg" class="cls-1" d="M836.451,53.9h-1.8v2.74l2.2,2.321h2.861l2.2-2.321V52.6l-5.362-3.761v-2.08l1.1-1.18h1.26l1.12,1.18v1.56h1.8v-2.3l-2.14-2.24h-2.8l-2.14,2.24v3.761l5.381,3.761v2.381l-1.18,1.24h-1.32l-1.181-1.24V53.9Zm10.28,4.961h1.821V45.495h1.66l0.06,1.58h1.5V43.854h-8.222v3.221h1.48l0.08-1.58h1.62V58.857Zm11.5-5.721h-2.6l1.1-7.442h0.38Zm-4.241-7.442h1.56v0.14l-0.76.46-1.84,12.563h1.84l0.58-3.9h3.121l0.58,3.9h1.841l-2.221-14.983h-4.7v1.82Zm10.94,5.2V45.735h2.521v1.72h1.78V43.934h-7.181v1.8h1.82v0.14l-0.76.46V58.857h1.82V52.716h3.361V50.9h-3.361Zm8.54,0V45.735h2.521v1.72h1.78V43.934h-7.181v1.8h1.82v0.14l-0.76.46V58.857h1.82V52.716h3.361V50.9h-3.361Zm14.882-6.641h-1.961l-7.521,14.6h1.96Zm7.039,4.021h1.821V46.015l-2.181-2.28h-2.841l-2.18,2.28V56.537l2.16,2.42h2.861l2.181-2.42V54.176l-1.821.02v1.66l-1.16,1.28h-1.26l-1.141-1.28V46.735l1.121-1.18h1.3l1.14,1.18v1.54Zm8.96,4.861h-2.6l1.1-7.442h0.38Zm-4.241-7.442h1.56v0.14l-0.76.46-1.84,12.563h1.84l0.58-3.9h3.121l0.58,3.9h1.841l-2.221-14.983h-4.7v1.82Zm10.52,8.2h-1.8v2.74l2.2,2.321h2.861l2.2-2.321V52.6l-5.362-3.761v-2.08l1.1-1.18h1.26l1.12,1.18v1.56h1.8v-2.3l-2.14-2.24h-2.8l-2.14,2.24v3.761l5.381,3.761v2.381l-1.18,1.24h-1.32l-1.181-1.24V53.9Zm10.28,4.961h1.821V45.495h1.66l0.06,1.58h1.5V43.854h-8.222v3.221h1.48l0.08-1.58h1.62V58.857Z" transform="translate(-834.656 -43.719)"/>
</svg>
