<svg xmlns="http://www.w3.org/2000/svg" width="65.719" height="15.094" viewBox="0 0 65.719 15.094">
  <defs>
    <style>
      .cls-1 {
        fill: #fff;
        fill-rule: evenodd;
      }
    </style>
  </defs>
  <path id="TWITTER.svg" class="cls-1" d="M513.071,93.857h1.821V80.495h1.66l0.06,1.58h1.5V78.854h-8.222v3.221h1.48l0.08-1.58h1.62V93.857Zm8.74-14.983h-2.78v1.72h1.82v0.14l-0.68.42,1.14,12.783h3.261l0.54-3.341,0.78-6.821h0.08l0.78,6.861,0.541,3.3h3.18l1.4-15.063h-1.861l-1.06,13.4h-0.18l-1.821-11.963h-2.06l-1.82,11.963h-0.2Zm16.421,14.983V92.2h-1.62V80.515h1.4v-1.66h-4.681v1.66h2.22v0.14l-0.76.46V92.2h-1.62v1.66h5.061Zm4.139,0h1.821V80.495h1.66l0.06,1.58h1.5V78.854h-8.222v3.221h1.48l0.08-1.58h1.62V93.857Zm9.2,0h1.821V80.495h1.66l0.06,1.58h1.5V78.854h-8.222v3.221h1.48l0.08-1.58h1.62V93.857Zm9-8.322V80.695h2.5v1.72h1.82V78.874h-7.2v1.82h1.82v0.14l-0.76.46V93.857h6.321V90.5h-1.82v1.54h-2.681V87.356h3.381v-1.82h-3.381Zm9.12-4.821h1.841l1.22,1.22v3.721L571.512,87h-1.821V80.715Zm0,8.1h1.581l2.34,5.041h2l-2.661-5.741,1.62-1.74V81.195l-2.3-2.32h-5.5v1.84h1.86v0.14l-0.76.46V93.857h1.82V88.816Z" transform="translate(-509.906 -78.844)"/>
</svg>
