<svg xmlns="http://www.w3.org/2000/svg" width="29.281" height="9.094" viewBox="0 0 29.281 9.094">
  <defs>
    <style>
      .cls-1 {
        fill: #fff;
        fill-rule: evenodd;
      }
    </style>
  </defs>
  <path id="SHARE.svg" class="cls-1" d="M912.1,89.095h-1.08v1.643l1.319,1.391h1.716l1.319-1.391V88.315l-3.214-2.255V84.813l0.659-.708h0.756l0.671,0.708v0.935h1.08V84.369l-1.283-1.343h-1.68l-1.283,1.343v2.255l3.226,2.255v1.427l-0.707.744h-0.792l-0.707-.744V89.095ZM917,84.2h1.08v0.084l-0.444.264v7.52h1.091V88.111h2.027v3.958h1.092V83.11h-1.092v3.958h-2.027V83.11H917V84.2Zm9.76,4.438H925.2l0.66-4.462h0.228Zm-2.542-4.462h0.935v0.084l-0.455.276-1.1,7.532h1.1l0.347-2.339h1.871l0.348,2.339h1.1l-1.332-8.983h-2.818v1.091Zm7.043,0.012h1.1l0.731,0.732v2.231l-0.743.8h-1.092V84.189Zm0,4.857H932.2l1.4,3.022h1.2l-1.6-3.442,0.972-1.043V84.477l-1.38-1.391h-3.3v1.1h1.115v0.084l-0.455.276v7.52h1.091V89.047Zm6.36-1.967v-2.9h1.5v1.031h1.092V83.086h-4.318v1.091h1.091v0.084l-0.455.276v7.532h3.789V90.054h-1.091v0.924h-1.607V88.171h2.027V87.08h-2.027Z" transform="translate(-911.031 -83.031)"/>
</svg>
