<svg xmlns="http://www.w3.org/2000/svg" width="41.219" height="15.187" viewBox="0 0 41.219 15.187">
  <defs>
    <style>
      .cls-1 {
        fill: #fff;
        fill-rule: evenodd;
      }
    </style>
  </defs>
  <path id="NEWS.svg" class="cls-1" d="M423.991,45.3h1.84v0.14l-0.76.46V58.44h1.78v-7.2l-0.24-5.061h0.06l1.361,4.9,2.34,7.362h1.941V43.5h-1.781v5.261l0.4,6.361h-0.06l-1.64-6.261-1.7-5.361h-3.541v1.8Zm13.12,4.821V45.278h2.5V47h1.82V43.457h-7.2v1.82h1.82v0.14l-0.76.46V58.44h6.321V55.08h-1.82v1.54h-2.681V51.939h3.381v-1.82h-3.381Zm8.86-6.661h-2.78v1.72h1.82v0.14l-0.68.42,1.14,12.783h3.261l0.54-3.341,0.78-6.821h0.08l0.78,6.861,0.541,3.3h3.18l1.4-15.063h-1.861l-1.06,13.4h-0.18L451.112,44.9h-2.06l-1.82,11.963h-0.2Zm13.78,10.022h-1.8V56.22l2.2,2.32h2.861l2.2-2.32V52.179l-5.362-3.761V46.338l1.1-1.18h1.26l1.12,1.18V47.9h1.8V45.6l-2.14-2.241h-2.8l-2.14,2.241v3.761l5.381,3.761V55.5l-1.18,1.24h-1.32l-1.181-1.24v-2.02Z" transform="translate(-424 -43.344)"/>
</svg>
