<svg xmlns="http://www.w3.org/2000/svg" width="46.656" height="15.25" viewBox="0 0 46.656 15.25">
  <defs>
    <style>
      .cls-1 {
        fill: #fff;
        fill-rule: evenodd;
      }
    </style>
  </defs>
  <path id="MOVIE.svg" class="cls-1" d="M959.313,58.837h1.78V43.874h-3.621l-0.86,5.941-0.5,5.221h-0.06l-0.52-5.3-0.86-5.861h-4.7v1.78h1.8v0.14l-0.72.44v12.6h1.78V45.655h0.26l1.861,11.822h2.3l1.8-11.822h0.26V58.837Zm11.94-12.9-2.261-2.261h-2.861l-2.26,2.261V56.517l2.24,2.4h2.881l2.261-2.4V45.935Zm-3.041,11.182h-1.32l-1.221-1.3V46.675l1.2-1.2h1.36l1.2,1.2v9.142Zm13.761-13.263h-1.841l-2,13.343h-0.42l-1.961-13.343h-2.68v1.74h1.86v0.12l-0.68.46,1.88,12.763h3.561Zm6.2,15V57.2h-1.62V45.515h1.4v-1.66h-4.681v1.66h2.22v0.14l-0.76.46V57.2h-1.62v1.66h5.061Zm3.939-8.322V45.695h2.5v1.72h1.82V43.874h-7.2v1.82h1.82v0.14l-0.76.46V58.857h6.321V55.5h-1.82v1.54h-2.681V52.356h3.381v-1.82h-3.381Z" transform="translate(-949.969 -43.688)"/>
</svg>
